<?xml version="1.0" encoding="utf-8"?>
<!-- Generator: Adobe Illustrator 27.8.1, SVG Export Plug-In . SVG Version: 6.00 Build 0)  -->
<svg version="1.1"
	 id="svg1" xmlns:inkscape="http://www.inkscape.org/namespaces/inkscape" xmlns:svg="http://www.w3.org/2000/svg" xmlns:sodipodi="http://sodipodi.sourceforge.net/DTD/sodipodi-0.dtd"
	 xmlns="http://www.w3.org/2000/svg" xmlns:xlink="http://www.w3.org/1999/xlink" x="0px" y="0px" viewBox="0 0 370.3 164.5"
	 style="enable-background:new 0 0 370.3 164.5;" xml:space="preserve">
<style type="text/css">
	.st0{fill:none;}
</style>
<sodipodi:namedview  bordercolor="#000000" borderopacity="0.25" id="namedview1" inkscape:current-layer="layer1" inkscape:cx="382.04568" inkscape:cy="154.20753" inkscape:deskcolor="#d1d1d1" inkscape:document-units="mm" inkscape:pagecheckerboard="0" inkscape:pageopacity="0.0" inkscape:showpageshadow="2" inkscape:window-height="1017" inkscape:window-maximized="1" inkscape:window-width="1920" inkscape:window-x="-8" inkscape:window-y="-8" inkscape:zoom="0.7198092" pagecolor="#ffffff">
	</sodipodi:namedview>
<path d="M164.3,102c0.1-4.2,0.1-9.7,0.1-12.1l0-4.4l0.2-0.4c0.4-1.1,0.8-1.6,1.4-2c0.3-0.2,0.8-0.8,1.3-1.5c0.6-0.9,0.8-2.3,0.6-3.3
	c-0.1-0.3-0.2-0.6-0.5-1c-0.7-1-1.4-2.4-1.8-3.4c-0.3-0.9-0.2-2.2,0.1-3.2c0.3-1.1,1.3-2.7,2.2-3.7c0.7-0.8,0.6-0.7,0.5-0.9
	c-0.1-0.1-0.3-0.6-0.5-1.1c-0.2-0.5-0.5-1.1-0.7-1.5c-0.5-1-0.8-2-0.8-3c-0.1-0.6,0.1-2,0.2-2.5l0.1-0.4l0,0.4
	c0.2,1.3,0.2,1.8,0.3,2.2c0.1,1,0.5,2,1.4,3.5c0.3,0.5,0.7,1.1,0.7,1.3c0.3,0.5,0.3,0.5,0.7,0c0.2-0.3,0.5-0.7,0.7-1l0.3-0.5l0-0.7
	c0-0.8-0.1-1.2-0.5-2.1c-0.3-0.8-0.9-1.8-1.2-2.2c-0.3-0.4-0.6-1.1-0.9-1.7c-0.2-0.6-0.3-1.6-0.2-2.1c0.1-0.5,0.4-1.3,0.7-1.8
	c0.4-0.9,0.9-2.1,1.1-2.7c0.1-0.6,0.3-1.7,0.3-2.5c0-0.4,0-0.4,0.1-0.3c0.1,0.1,0.1,0.5,0.1,1.3c0,1.4-0.1,2.1-0.6,3.2
	c-0.4,1.1-0.9,2.4-0.9,2.8c-0.1,0.3,0,0.5,0,1c0.2,1,0.4,1.7,1,2.4c0.2,0.3,1,1.6,1.3,2.1c0.2,0.4,0.5,1.4,0.6,2
	c0.2,1.4-0.1,2.3-1.6,4c-0.3,0.3-0.7,0.8-1,1.1c-0.7,0.8-1.2,1.6-1.6,2.4c-0.5,0.9-0.6,1.4-0.7,2.2c-0.1,1,0.1,1.7,0.8,3
	c0.6,1,1.3,2.6,1.5,3.1c0.1,0.3,0.1,0.5,0.1,1.5c0,1.1,0,1.2-0.2,1.6c-0.3,0.9-1.3,2-2.2,2.7l-0.3,0.2l0.5,0l0.5,0l0.5-0.3
	c0.4-0.3,0.6-0.4,0.9-0.9c0.6-0.9,0.8-1.4,1-2.9c0.1-0.7,0.1-0.9-0.1-2.3c-0.1-0.5,0.1-0.4,0.2,0c0.5,1.3,0.5,2.2,0.2,3.9
	c-0.2,1.1-0.4,1.7-0.9,2.3c-0.1,0.1-0.1,0.2-0.1,0.2c0,0,1.4,0,3.1,0c1.8,0,3.1-0.1,3.2,0c0.1,0.1-0.1,0.1-2.5,0.3
	c-1.2,0.1-2.3,0.2-2.4,0.2c-0.1,0-0.2,0.3-0.4,0.5l-0.2,0.5l-0.1,1.7c0,0.9-0.1,3.7-0.2,6.1c-0.1,5.4-0.1,6-0.4,5.7
	c-0.1-0.1-0.1-3.7,0-8.7c0-1.5,0-3.3,0-4c0-1.2,0-1.4,0.1-1.7c0-0.1,0-0.1-0.6-0.1c-0.6,0-0.7,0.1-1.1,0.3c-0.3,0.2-0.4,0.3-0.6,0.6
	c-0.2,0.4-0.2,0.4-0.3,1.6c0,0.7-0.1,1.6-0.2,2.1c-0.1,0.5-0.1,1.3-0.1,1.8c0,0.9-0.1,1.1-0.3,1c-0.1-0.1-0.1-3.6,0-5.2
	c0-0.5,0-1.1,0-1.2c0-0.2,0-0.3,0.1-0.5l0.1-0.3l-0.3,0c-0.2,0-0.4,0-0.4,0.1c0,0-0.2,0.3-0.3,0.6L165,86l-0.1,2.8
	c0,1.5-0.1,3.8-0.1,5c-0.1,1.5,0,4.5-0.1,9.1C164.7,105.2,164.2,106,164.3,102z"/>
<path d="M182.4,91.9c0-0.1,0.1-1.4,0.1-2.8c0.1-4,0-5.9-0.6-8c-0.1-0.5-0.3-1-0.4-1.2c-0.2-0.5-0.8-1.3-1.4-1.9
	c-0.5-0.6-2-1.8-2.7-2.2c-0.9-0.6-1.5-1.2-2.1-2.4c-0.4-0.8-0.6-1.4-0.7-2.3c-0.1-1.1,0-1.9,0.5-3.5c0.2-0.6,0.4-1.4,0.4-1.7
	c0.2-1.2,0.2-2.3-0.1-3.2c-0.3-0.8-1.1-1.9-2-2.7c-1.9-1.6-3.1-3.1-3.4-4.4c-0.2-0.9-0.2-2.5,0.1-3.3c0.1-0.2,0.2-0.7,0.3-1.1
	c0.1-0.6,0.2-0.8,0.1-1.6c0-0.5,0-0.9,0-0.9c0.1,0,0.2,0.5,0.3,1.1c0.1,0.5,0,1.1-0.3,2.5c-0.2,1-0.2,1.2-0.2,1.7
	c0.1,1.6,1.3,3.5,3,4.9c0.2,0.2,0.7,0.6,1,1c1.6,1.9,2,2.7,2,4.8c0,1.2-0.1,1.7-0.5,3.1c-0.4,1.4-0.5,2.7-0.2,3.7
	c0.2,0.8,1,2.1,1.4,2.6c0.1,0.1,0.5,0.4,0.9,0.6c0.9,0.5,2.2,1.6,2.9,2.2c1.6,1.5,2.3,3.2,2.5,5.8c0.1,1.1,0.1,1.7-0.2,3.9
	c-0.3,2.9-0.4,4-0.7,4.9C182.5,92.2,182.4,92.3,182.4,91.9z"/>
<g>
	<path d="M230.8,99.6c-0.1,0.1-0.3,0.4-0.3,0.6l0,0c0,0.6,0.2,0.6,0.9,0.1c0.7-0.5,0.6-1.6,0-1.7c-0.6-0.1-1.1,0.4-0.7,0.7
		C231,99.4,231,99.5,230.8,99.6z"/>
	<path d="M229.2,98.6c-0.8-0.7-1.3-0.7-0.6,0.1c0.3,0.3,0.4,0.6,0.3,0.6c-0.4,0-0.4,0.6,0,0.8c0.2,0.1,0.1,0.2-0.2,0.4
		c-0.6,0.3-0.5,1,0.1,1c0.5,0,0.4,0.4-0.1,0.6c-0.3,0.1-0.5,0.3-0.5,0.4l0,0c0,0.3,0.1,0.3,1.1-0.3c0.8-0.5,0.8-0.5,0.7-1.7
		C229.9,99.4,229.7,99,229.2,98.6z"/>
	<path d="M228.9,95c0.2,0.4,0.2,0.5-0.1,0.4c-0.5-0.2-0.8,0.3-0.7,0.9c0.1,0.4,0,0.4-0.2,0.2c-0.5-0.4-1.2-0.6-1.1-0.3
		c0,0.1,0.6,0.6,1.3,1.1l0,0c0.9,0.6,1.3,0.8,1.5,0.6c0.2-0.1,0.3-0.5,0.2-0.7c-0.1-0.2,0-0.5,0.1-0.6c0.4-0.2,0.3-0.9-0.3-1.5
		C228.9,94.3,228.5,94.3,228.9,95z"/>
	<path d="M149.5,40.8c-0.1-0.1-0.3-0.1-0.5,0v0c-0.2,0.1-0.1,0.1,0.1,0.1C149.5,40.9,149.6,40.9,149.5,40.8z"/>
	<path d="M170.2,25.9c0.1,1.2,0.2,1.6,0.3,1.3c0.3-0.7,1-7,0.8-7.3c-0.2-0.3-1-0.3-1.2,0.1C170,20.3,170,23.1,170.2,25.9L170.2,25.9
		z"/>
	<path d="M178.2,22.1c0-0.6-0.6-1-1-0.6c-0.4,0.4-1.4,4.2-1.4,5.3v0.7l0.4-0.6C176.7,26.2,178.2,22.6,178.2,22.1z"/>
	<path d="M168.5,25.8c0.2-1.5,0-2.8-0.5-2.9c-0.4-0.1-0.4,3.1,0,3.8C168.2,27.2,168.3,27.1,168.5,25.8z"/>
	<path d="M173.4,26.6c0.4-0.6,0.8-3,0.6-3.4c-0.2-0.4-0.2-0.4-0.5,0c-0.2,0.3-0.3,1.1-0.3,2.1l0,0C173.2,26.4,173.3,26.9,173.4,26.6
		z"/>
	<path d="M154.8,31.9L154.8,31.9c0.6,0.3,1.3,0.6,1.5,0.6c0.4,0,0.4,0,0.1-0.5c-0.7-1-3.1-3.3-3.4-3.3c-0.2,0-0.4,0.2-0.6,0.3
		C152,29.7,152.8,30.8,154.8,31.9z"/>
	<path d="M157.6,31l0.1-0.8c0.1-1-0.6-2.3-1.3-2.4c-0.8-0.1-0.7,0.5,0.4,1.9L157.6,31z"/>
	<path d="M159.6,28.5c0.1,0.4,0.4,0.8,0.5,0.9c0.4,0.5,0.7,0.4,0.5-0.2c-0.6-1.8-2-5.1-2.3-5.3c-0.3-0.2-0.5-0.2-0.8,0.1
		c-0.4,0.4-0.3,0.5,0.7,2.1C158.9,27.1,159.5,28.1,159.6,28.5z"/>
	<path d="M163.5,26.5c-0.2-1.6-0.7-2.5-1.4-2.2c-0.5,0.2-0.4,0.8,0.5,2.8C163.3,28.7,163.7,28.5,163.5,26.5z"/>
	<path d="M165.4,27.3c0.3,0.6,0.3,0.5,0.3-0.4c0.1-1.4-0.6-5.1-1-5.5c-0.3-0.3-0.5-0.3-0.8-0.1c-0.2,0.1-0.4,0.4-0.4,0.6
		C163.7,22.4,165.1,26.7,165.4,27.3L165.4,27.3z"/>
	<path d="M188.2,32.6c-0.5,0-1.3,0.7-1.3,1.2v0c0,0.6,0.1,0.6,1-0.1C188.7,33.2,188.9,32.6,188.2,32.6z"/>
	<path d="M190.3,38.3c0.3,0,0.4-0.1,0.3-0.2c-0.1-0.1-0.3-0.2-0.5-0.2s-0.3,0.1-0.3,0.2h0C189.8,38.2,190.1,38.3,190.3,38.3z"/>
	<path d="M188.2,35.4c0,0.4,0.6,0.3,1.1-0.2c0.5-0.5,0.4-0.6-0.5-0.2C188.4,35.1,188.2,35.3,188.2,35.4z"/>
	<path d="M178.4,28.1c0.6,0,1.9-3.5,1.4-4c-0.6-0.8-1.3,0.3-1.5,2.5C178.2,27.6,178.2,28.1,178.4,28.1z"/>
	<path d="M180.9,29.1c0.3-0.4,1.1-1.6,1.8-2.6c1.2-2,1.4-2.7,0.5-2.7c-0.3,0-0.8,0.7-1.6,2.5c-0.7,1.4-1.2,2.8-1.2,3v0
		C180.3,29.8,180.4,29.8,180.9,29.1z"/>
	<path d="M184.4,29.1c0.8-1.1,0.9-1.8,0.4-1.9c-0.2,0-0.6,0.4-1,1.2c-0.4,0.7-0.6,1.4-0.6,1.6C183.2,30.5,183.8,30,184.4,29.1z"/>
	<path d="M186.9,30c1.7-1.6,2.2-2.4,1.3-2.4c-0.6,0-3.6,3.3-3.6,3.9C184.6,31.9,185.3,31.5,186.9,30z"/>
	<path d="M152.9,34c0.6,0.5,1.1,0.6,1.3,0.2c0.2-0.3-0.8-1.2-1.2-1.2C152.4,33.1,152.4,33.6,152.9,34z"/>
	<path d="M250.6,90.6l-0.7-0.3l0.7-0.4c0.9-0.6,1-1.6,0.1-2.1c-0.5-0.2-0.6-0.4-0.5-0.9c0.1-0.5,0-0.6-0.8-1.1l-0.9-0.5l1.3-0.3
		c2.3-0.5,2.4-1.2,0.5-2.1c-1.2-0.5-1.2-0.6-0.6-0.8c1.2-0.6,1.1-1.2-0.4-2.1c-0.5-0.3-1-0.8-0.9-0.9c0.1-0.2-0.1-0.4-0.3-0.4
		c-0.4-0.1-0.3-0.2,0.1-0.6c0.8-0.6,0.5-1.1-1.2-1.5c-1.4-0.3-1.4-0.3-1.1-0.8c0.7-1.1-0.8-1.7-2.5-0.9c-0.5,0.2-1.4,0.9-2,1.5
		c-1.2,1.1-1.4,1.1-0.8,0.1c0.5-0.8,0.4-1.2-0.2-1.5c-1.3-0.6-3.8,1.7-6.2,5.5c-0.7,1.1-1.7,2.4-2.2,2.9c-0.9,0.9-4.3,2.8-4.5,2.5
		c-0.1-0.1,0.2-0.6,0.7-1.2c0.7-0.9,2.3-4.7,2.3-5.4c0-0.1,0.6-0.9,1.3-1.8c1.3-1.7,1.6-2.5,0.9-2.9c-0.3-0.2-0.2-0.3,0.7-0.8
		c1.6-0.8,3.8-0.9,7.5-0.2c2.7,0.5,3.2,0.5,4.4,0.2c2.7-0.6,3.2-1.2,1.1-1.2c-0.7,0-1.8-0.1-2.3-0.3c-1.1-0.3-1.8-0.8-0.9-0.6
		c0.3,0.1,1.6,0.1,2.9,0c1.9-0.1,2.3-0.2,2.3-0.6c0.1-0.3-0.1-0.4-0.8-0.4c-0.5,0-0.9-0.1-0.9-0.1c0-0.5,0.6-1,1.4-1.1
		c1.8-0.3,2.4-1.8,1.5-3.4c-0.5-0.8-3.5-2.9-5.9-4.1c-1.1-0.6-1.5-0.9-1.4-1.1c0.2-0.6-0.1-0.9-0.6-0.4c-0.4,0.4-0.5,0.4-1.3,0
		c-0.6-0.2-0.9-0.5-0.9-0.8c0-0.8-0.3-1.1-0.9-0.9c-0.5,0.1-0.6,0.1-0.4-0.6c0.1-0.5,0-0.8-0.2-0.9c-0.2-0.1-0.4-0.4-0.4-0.6
		c0-0.7-1.1-0.6-2.1,0.4c-0.5,0.5-1,0.8-1.2,0.8c-0.2,0-2.5-1-3.1-1.4c0,0,0.1-0.2,0.3-0.4c0.2-0.2,0.4-0.5,0.4-0.7
		c0-0.3,0.1-0.3,0.6-0.1c0.9,0.4,1.6-0.1,1.5-1c-0.1-0.6,0-0.7,0.5-0.5c0.7,0.2,1.5-0.5,1.5-1.1c0-0.2,0.2-0.6,0.5-0.7
		c0.7-0.3,0.9-0.7,0.9-1.2c0-0.4,0.7-1.3,0.8-1.1c0,0,1.3,2.1,2.9,4.6c3,4.9,3.7,5.8,4.6,5.8c1,0,1.1-0.4,1-5.2c0-2.4-0.1-2.9-0.6-4
		c-0.3-0.7-0.7-1.6-0.7-1.9c-0.1-0.8-1.1-2.3-1.5-3c-2.3-4-8.3-7.9-8.3-7.9l-1-0.7c-2.6-1.8-5.6-2.9-7.7-2.9c-1.8,0-2,0.3-2.4,2.7
		c-0.2,1.1-0.5,2.5-0.8,3.1c-1.2,2.5-4.4,5.2-7.5,6.4c-3.9,1.5-7.6,1.4-11.8-0.4c-3.5-1.5-4.7-1.9-6.9-2.2c-2.3-0.3-3.9,0-5.3,1
		c-0.5,0.4-1,0.7-1.1,0.7c-0.1,0-0.1-0.4-0.1-0.8c0-1.1-0.9-3.8-1.8-5.7c-2.3-4.5-7-8.1-12.6-9.8c-2.4-0.7-7-0.9-9.5-0.3
		c-8.5,1.9-15,9.7-16,19.2c-0.2,2.4,0,5.5,0.6,7.1c0.2,0.6,0.4,1.1,0.4,1.1c0,0-2,0-4.5,0.1c-2.5,0-5.5,0.1-6.8,0.3
		c-1.3,0.1-2.5,0.2-2.6,0.1c-0.4-0.4,0.3-3.9,1-5.4c0.8-1.8,2.8-3.9,5.3-5.8c3.4-2.4,3.7-3,3.8-6.4c0.1-2.5-0.1-2.9-1.3-3.2
		c-0.5-0.1-1.5-0.4-2.2-0.6c-2.1-0.6-5.2-0.8-8-0.6c-2.1,0.1-2.8,0.3-3.9,0.8c-2.7,1.3-4.2,3.3-7.9,10.3c-2.5,4.6-3.5,6.4-5.5,9.6
		c-0.8,1.2-1.5,2.4-1.6,2.6c-0.2,0.3-0.4,0.2-1.1-0.3c-1.7-1.1-3.2-0.6-2.4,0.8l0.4,0.7l-1.1-0.6c-0.8-0.5-1.2-0.5-1.5-0.4
		c-0.2,0.1-0.6,0.1-0.8,0c-0.4-0.3-1,0-1,0.4c0,0.3-0.2,0.3-0.7,0.2c-0.5-0.1-0.8,0-1.3,0.4c-0.3,0.3-0.8,0.6-1,0.6
		c-0.2,0-0.4,0.2-0.5,0.5c-0.1,0.3-0.3,0.5-0.5,0.5c-0.2,0-0.3,0.1-0.3,0.2c0,0.1-0.2,0.2-0.3,0.2c-0.4,0-0.9,0.9-0.7,1.2
		c0.1,0.1,0.1,0.4,0,0.6c-0.1,0.4-0.2,0.4-0.4-0.1c-0.1-0.3-0.3-1-0.3-1.7c0-0.7-0.3-1.7-0.5-2.3c-0.6-1.3-1.3-1.7-2.1-1.2
		c-0.6,0.4-1,0.2-2.3-1c-1.1-1-1.8-1.1-1.8-0.2c0,0.4-0.1,0.6-0.4,0.6c-0.3,0-0.4,0.2-0.3,0.7c0.1,0.6,0,0.7-0.5,0.7
		c-0.8,0-1,0.4-0.6,1.5c0.3,1.1,1.4,2.4,2.5,3c0.5,0.3,0.7,0.5,0.6,0.5c-0.2,0-0.3,0.2-0.3,0.5c0,0.6,0.9,0.9,2.5,0.9
		c1.1,0,1.4,0.1,2.2,0.8c0.5,0.4,0.9,1,0.9,1.3c0,0.3,0.3,1.2,0.6,2c0.3,0.8,0.5,1.6,0.5,1.9c-0.1,0.4,1.5,2.7,3.4,4.9
		c0.7,0.8,1,1.4,1,1.8c0,0.5-0.1,0.6-0.4,0.5c-0.2-0.1-0.5-0.3-0.6-0.4c-1.4-2-5-5.8-6.6-6.7c-0.7-0.4-1.2-0.5-2.8-0.5
		c-1.9,0-2,0-2-0.6c0-0.3,0.2-1,0.5-1.5c0.5-0.8,0.5-1,0.2-2c-0.3-1.1-0.4-1.4-2-4.6c-0.9-1.8-1.5-2.1-1.1-0.6
		c0.4,1.6,0.1,1.7-0.8,0.3c-0.5-0.7-1.1-1.3-1.3-1.3c-0.4,0-0.4,0,0,1.6c0.2,0.7,0.4,2.1,0.5,3c0.1,0.9,0.3,1.9,0.4,2.2
		c0.1,0.3,0.2,0.5,0.2,0.5c-0.4,0-4.6-1.8-5.2-2.3c-0.6-0.4-1-0.5-1.1-0.4c-0.3,0.3,1.2,2.2,3.1,3.6c1.5,1.2,1.5,1.2,0.8,1.3
		c-0.4,0.1-1.3,0.3-2,0.5c-0.7,0.2-1.6,0.3-1.9,0.3c-0.7,0-1.3,0.6-0.9,0.8c0.1,0.1,1.4,0.2,2.9,0.3c2.5,0.1,2.6,0.2,1.9,0.5
		c-0.5,0.2-1.6,0.3-2.5,0.3c-1.9,0-2,0.4-0.3,1c1.6,0.5,2.7,0.5,6.1-0.1c3.3-0.6,5.1-0.5,6.8,0.3c1,0.5,1,0.5,0.6,0.9
		c-0.6,0.6-0.3,1.3,0.9,2.8c0.7,0.8,1.2,1.8,1.6,2.9c0.3,0.9,0.8,2.1,1.1,2.8l0.6,1.2l-1.4-0.1c-1.8-0.1-2.4-0.6-4.1-3.5
		C98.2,77,96.2,75,94.6,75c-1,0-1.2,0.5-0.7,1.6l0.4,0.8L93,76.2c-2-1.7-3.3-2.1-4.2-1.4c-0.4,0.3-0.4,0.4-0.1,0.9
		c0.4,0.7,0.3,0.7-1.2,1.1c-1,0.2-1.3,0.4-1.3,0.8c-0.1,0.3,0.1,0.6,0.4,0.7c0.5,0.1,0.5,0.2,0.1,0.5c-0.2,0.2-0.3,0.4-0.3,0.6
		c0.1,0.1-0.3,0.5-0.9,0.9c-1.5,0.9-1.7,1.8-0.3,2.2c0.4,0.1,0.3,0.2-0.7,0.7c-1.2,0.6-1.7,1.2-1.3,1.6c0.1,0.1,0.8,0.4,1.6,0.5
		l1.4,0.3l-0.9,0.5c-0.7,0.4-0.9,0.7-0.8,1.1c0,0.4-0.2,0.7-0.6,1.2c-0.7,0.6-0.7,0.6-0.3,1.3c0.2,0.4,0.6,0.7,0.9,0.8
		c0.5,0.1,0.4,0.5-0.3,0.5c-0.6,0-0.9,0.5-0.4,0.8c0.2,0.2,0.4,0.4,0.4,0.6c0,0.3,1.9,1.2,3.6,1.7c0.6,0.2,1.1,0.5,1.1,0.6
		c0,0.7,2.2,1,3.3,0.4c1-0.5,2.4-2.2,3.1-3.7c0.6-1.4,1.2-2.2,1.6-2.2c0.2,0,0.1,0.1,0,0.3c-0.4,0.4-0.4,1.1,0,1.3
		c0.1,0.1,0.6-0.1,1-0.5c0.4-0.3,1.3-0.7,1.8-0.9c0.6-0.1,1.7-0.4,2.5-0.6c0.8-0.2,1.6-0.4,1.8-0.5c0.2-0.1,0.4-0.1,0.4,0.1
		c0,0.2-2.4,1.1-4.2,1.5c-1.2,0.3-1.9,1-1.7,1.8c0.2,0.8,0.7,0.9,3.8,0.8c1.4,0,2.5,0,2.5,0c0,0.1-0.5,0.6-1.2,1.2
		c-0.9,0.8-1.2,1.3-1.1,1.7c0,0.3-0.1,0.8-0.3,1.2c-0.8,1.3-1.2,5.1-0.5,6c0.1,0.2,0.5,0.6,0.7,1l0.4,0.6l-1-0.5
		c-0.6-0.3-1.3-0.5-1.7-0.5c-0.6,0-0.6-0.1-0.5-0.4c0.5-1.1,0.6-2.6,0.3-3.7c-0.3-1.3-1.4-3.1-2.2-3.6c-0.7-0.5-0.9-0.3-0.7,0.6
		c0.1,0.7,0.1,0.7-0.9-0.4c-1.2-1.3-1.8-1.3-1.3,0.1c0.5,1.2,0.5,1.2-0.7,0.1c-0.8-0.7-1.2-0.9-1.4-0.7c-0.2,0.2-0.1,1.1,0.9,4.1
		c0.1,0.4-0.1,0.3-1.6-0.3c-1-0.4-1.9-0.8-2-0.9c-0.1-0.1-0.3-0.1-0.5,0c-0.3,0.2-0.2,0.4,0,1.1c0.2,0.4,0.3,0.8,0.3,0.8
		c0,0-0.5-0.2-1.1-0.4c-2.2-0.8-2.2-0.3-0.2,1.7c0.8,0.8,2,1.7,2.7,2.1l1.2,0.6l-1,0.3c-0.6,0.2-1,0.4-1,0.5l0,0
		c0,0.1,0.4,0.2,1,0.1c3.4-0.4,3.8-0.4,4.4-0.1c0.5,0.3,0.8,0.3,1.7-0.1c1.4-0.5,2.9-0.5,4-0.1c0.5,0.2,1.8,0.9,3.2,1
		c1.5,0.1,2.3-0.7,2.9-1c0.5-0.4,0.7-0.4,1.3-0.2c0.4,0.2-0.1,1.1-0.2,1.2c-0.1,0.1,0.1,0.2,0.3,0.2c0.3,0,0.5-0.1,0.6-0.2
		c0.3-0.3,2.3-1,2.3-0.7c0,0.4,2.4,0.3,2.7-0.1c0.2-0.3,0.3-0.3,0.9,0c0.6,0.4,0.6,0.4,1.3-0.7c1.2-1.7,5.1-4,7.6-4.6l0.8-0.2
		l-0.6,0.4c-0.3,0.2-1.2,0.9-1.9,1.5c-1.6,1.4-2.2,1.7-3.6,2.3c-0.6,0.2-2.1,1.4-2.4,1.7l-0.5,0.6l0.6,0c0.7,0,3.4-1.8,6-3.7
		c1.1-0.8,3.2-2,4.7-2.7c1.5-0.7,2.7-1.3,2.7-1.4c0-0.2-5.6,0.5-7.6,1c-1.6,0.4-3.6,1.6-5.3,3.1c-0.5,0.5-1,0.8-1,0.7
		c0-0.1,0.6-0.8,1.4-1.5c1.1-1,1.2-1.2,0.7-1c-0.4,0.1-1,0.5-1.3,0.7l-0.6,0.4l0-2.4l0-2.4l1.1,0.5c1.2,0.5,4.2,0.8,5.9,0.5l1-0.2
		l-1.2-0.9c-0.6-0.5-1.5-1.4-1.8-2c-0.3-0.6-0.6-1.2-0.6-1.2c0-0.1,1.3,0.3,2,0.7c0.4,0.2,1.2,0.9,1.8,1.5c1.3,1.4,2.6,2,4.2,2
		c1.3,0,3.5,0.4,2.6,0.4c-0.3,0-1,0.4-1.7,0.9c-0.7,0.5-2.3,1.7-3.7,2.7c-2.5,1.8-4,3.1-4,3.4c0,0.4,1.1,0.1,1.8-0.5
		c0.4-0.4,1.8-1.5,3.1-2.4c1.3-0.9,2.8-2,3.3-2.4c0.7-0.5,1.2-0.7,1.8-0.7c0.5,0,0.9,0.1,0.9,0.2c0,0.1-0.1,0.2-0.2,0.2
		s-0.2,0.2-0.2,0.4c0,0.2-0.2,0.4-0.3,0.4c-0.6,0-0.7,0.5-0.2,1c0.4,0.4,0.4,0.5,0,0.5c-0.7,0-2.6,1.3-3.1,2.2
		c-0.6,1-0.6,1.4-0.2,1.4c0.2,0,0.4-0.1,0.4-0.2c0-0.3,1.4-1.9,2-2.2c0.3-0.2,1.1-0.3,1.9-0.4c1.6-0.1,1.9-0.6,0.7-1.1
		c-0.4-0.1-0.8-0.3-0.9-0.4c-0.2-0.3,1.1,0.2,2.1,0.7l0.9,0.4L134,102c-0.9,0.3-2.3,1-3.3,1.6c0,0-1.7,0.8-1.7,1
		c0,0.2,0.9,0.1,0.9,0.1c0.8-0.1,1.2-0.1,2.5-0.9c2.1-1.2,4.1-1.9,5.7-1.9c0.8,0,1.2-0.1,1.1-0.2c-0.1-0.1-0.9-0.2-1.8-0.2
		c-1.6,0-1.6,0-1.4-0.5c0.4-0.6,0.1-1.1-1.2-2c-0.6-0.4-1.9-1.5-3-2.5c-2-1.8-2.6-2.3-3.7-2.6c-0.4-0.1-0.6-0.3-0.6-0.6
		c0-0.3-0.3-0.5-1.1-0.8c-0.6-0.2-1.1-0.5-1.1-0.6c0-0.2-0.3-0.4-0.7-0.5l-0.7-0.2l1.3-1.3c0.7-0.7,1.6-1.7,1.8-2.2
		c0.6-1.2,0.9-1.4,0.9-0.5c0,0.4,0.2,1.2,0.4,1.9c0.4,1.4,0.4,1.5,0,1.5c-0.2,0-0.4-0.3-0.4-0.7c0-0.4-0.2-0.6-0.4-0.6
		c-0.2,0-0.5-0.1-0.6-0.4c-0.3-0.4-0.3-0.3-0.3,0.7c0,1,0.1,1.1,0.4,1.1c0.3-0.1,0.5,0.2,0.8,0.6c0.2,0.4,0.5,0.7,0.6,0.7
		c0.2,0,0.6,0.5,1,1.1c0.8,1.3,4.8,4.8,5.5,4.8c0.1,0-0.1-0.6-0.5-1.4c-0.4-0.8-0.7-1.7-0.8-2.2c-0.1-0.7-0.1-0.8,0.2-0.5
		c0.2,0.2,0.4,0.4,0.4,0.6c0,0.2,0.2,0.4,0.4,0.5c0.2,0.1,0.4,0.4,0.4,0.9c0,0.9,0.7,2.1,1.7,2.9c1,0.7,1.8,0.9,0.9,0.1
		c-0.9-0.8-1.7-1.9-1.7-2.6v-0.6l0.8,0.6c1.2,0.9,3.4,1.9,6,2.7c2,0.6,2.5,0.7,6.1,0.7c3.6,0,4,0,5.2-0.6c2-0.9,2.7-2.2,1.8-3.2
		c-0.2-0.2-0.6-0.4-0.9-0.4c-0.3,0-0.6-0.2-0.7-0.5c-0.1-0.4-1-1-2.3-1.3c-0.3-0.1-0.7-0.3-0.9-0.5c-0.2-0.2-0.8-0.4-1.3-0.6
		c-0.6-0.2-1.1-0.5-1.3-0.7c-0.3-0.3-1.2-0.8-3.8-2.2c-0.6-0.3-1.1-0.7-1.2-0.9c-0.1-0.2-0.9-0.9-1.8-1.4c-1.1-0.7-1.6-1.2-2-2
		c-0.3-0.6-0.5-1.1-0.5-1.3c0-0.1,0.8-0.7,1.7-1.3c1.6-1,6-5.1,7.7-7.2c0.7-0.9,0.8-0.9,2.5-0.9c1.2,0,2,0.1,2.6,0.4
		c0.7,0.4,0.8,0.5,0.9,1.4c0.1,0.9-0.1,1.2-1.6,3.2c-4.5,6.1-5.5,8.2-4.5,9.7c0.4,0.6,1.5,0.7,1.9,0.3c0.2-0.2,0.4-0.2,0.8,0.1
		c0.3,0.2,0.7,0.3,0.9,0.2c0.4-0.2,1.8-0.2,2.1,0c0.7,0.7,2.4-0.2,4.2-2.1c2.4-2.5,5.9-9.9,5.9-12.3c0-0.5-0.3-1.7-0.6-2.5
		c-0.5-1.4-2.4-3.3-1.6-4.6c0.3-0.5,1.4-2.1,1.9-2.5c0.5-0.4-0.3-0.2-0.6,0.1c-0.5,0.6-2,1.4-2.5,1.2c-0.4-0.2-0.8-0.5-1.1-1.8
		c-0.3-0.9-0.8-1.9-1-2c-0.2-0.2-0.4-0.7-0.5-1.1c-0.1-0.7,0-0.9,0.4-1.5l0.6-0.6l-0.6,0.4c-0.5,0.3-0.6,0.3-1-0.1
		c-0.4-0.5,1.2-1.4,3.2-3.2c1.1-1,2.4-2.3,2.9-2.9c0.5-0.6,0.9-1.1,1-1.1c0.4,0-0.4,1.4-2.4,4.5c-1.2,1.8-2.1,3.3-2.1,3.4
		c0,0.6,0.5,0.3,1.1-0.7c0.4-0.6,1.4-2.2,2.2-3.5c1.4-2.2,1.6-2.4,1.6-3.8c0.1-1,0-1.3-0.1-1c-0.4,0.9-7.9,7.3-8.5,7.3
		c-0.3,0-0.5-0.1-0.5-0.3c0-0.1,2.5-1.9,3.7-2.9c3.4-2.9,5-4.4,4.9-4.6c-0.2-0.2-2,1.3-4.7,3.8c-2.7,2.5-4.5,3.5-4.9,2.8
		c-0.3-0.5,1.4-1.9,3-3.1l1.3-1l-1.1,1c-0.6,0.5-1,1-0.9,1.1c0.3,0.3,2.3-1.2,4.7-3.6c1.4-1.4,2.6-2.5,2.7-2.5
		c0.1,0,0.2,0.2,0.2,0.5c0,0.3,0.1,0.5,0.2,0.5c0.1,0,0.2-0.3,0.2-0.6c0-0.8,0.3-1.4,1.4-2.6c1.1-1.2,1.2-2.1,1.3-7.2
		c0.1-5.1,0.4-5.8,2.4-4.7c1.1,0.6,1.5,1.1,3.6,4.7c0.5,0.9,1.3,1.6,2.4,2.5c1.7,1.3,2.1,2,2.5,4.4c0.1,0.5,0.6,2.1,1.2,3.5
		c0.6,1.4,1.1,2.6,1,2.6c0,0-0.4-0.7-0.8-1.6c-1.8-4-1.8-4-1.6-3c0.1,1,3.6,8.2,4.1,8.6c0.2,0.2-0.1-0.6-0.6-1.7
		c-1-2-1.1-2.3-0.8-2.1c0.2,0.1-0.1-0.8-1.4-4.3c-0.4-1.1-0.8-2.5-0.9-3.1c-0.3-1.8-0.7-2.6-1.7-3.3c-1.1-0.8-3.2-2.8-3.2-3
		c0-0.3,0.9,0,2.8,0.9c1.8,0.8,3.2,2.1,4.3,4.1c0.7,1.3,3,3.7,3.4,4.1c0.4,2.4,10.6,4.2,12.4,7.8c0.2,0.4,2.9,2.4,2.9,3
		c0,0.8-1.4,2.9-2.4,3.6c-1.3,0.9-3.1,1.5-5,1.8c-2.8,0.4-3.7,1.1-4.4,3.2c-0.5,1.7-1.5,8.5-1.8,11.9c-0.1,2-0.5,4.1-1.3,7.4l0,0
		c-0.6,2.5-1.1,4.6-1.2,4.6c-0.2,0.2-0.4,1.2-0.4,1.2l-0.6,1.7c-0.9,2.8-0.9,3.3-0.4,4c0.6,0.7,1.8,0.8,2.5,0
		c0.3-0.3,0.9-0.5,1.3-0.5c0.7,0,1.9-0.9,1.9-1.5c0-0.1,0.2-0.2,0.3-0.2c0.6,0,1.8-1.2,2.1-2.1c0.2-0.5,0.5-1.1,0.8-1.3
		c0.3-0.2,0.6-0.7,0.7-1c0.1-0.3,0.4-0.8,0.7-1.2c0.3-0.4,0.6-1.2,0.7-1.8c0.1-0.6,0.3-1.5,0.5-1.8c0.2-0.4,0.5-1.3,0.7-1.9
		c0.5-2.1,0.9-2.9,1.3-3.1c0.3-0.1,0.6-0.3,1.9-1.1c0.3-0.2,1.1-0.6,1.7-0.8c0.6-0.2,1.3-0.7,1.7-1l0.6-0.6l0.3,0.6
		c0.2,0.3,0.8,1,1.5,1.6c0.6,0.5,1.3,1.2,1.5,1.5c0.5,0.8,0.9,2.9,0.6,3.5c-0.2,0.5-0.2,0.5-0.2-0.1c0-1.1-0.5-1.9-1.1-1.8
		c-0.7,0.1-1.2-0.4-1.5-1.4c-0.3-0.9-0.8-1.1-1.2-0.3c-0.2,0.4-0.3,0.4-0.4,0.2c-0.1-0.2-0.3-0.3-0.5-0.3c-0.2,0-0.5-0.2-0.7-0.3
		c-0.5-0.4-1.4-0.2-2.2,0.4c-0.6,0.5-0.7,0.9-0.9,2.7c-0.3,2.6-0.1,3.4,1.3,5.1c0.9,1.2,1.4,2.5,0.9,2.8c-0.1,0.1-0.2,0.7-0.2,1.3
		c0,1.4-0.2,1.9-1.4,3.1c-1,1-0.8,1.1,0.3,0.4c1-0.6,2-2.3,2-3.3c0-0.5,0.1-0.8,0.4-0.8c0.5,0,0.5-0.5,0-1.1
		c-0.3-0.5-0.3-0.5,0.2-0.7c0.3-0.1,0.7-0.1,0.7,0c0.2,0.2-0.4,2.5-1,3.7l-0.6,1.2l0.7-0.4c0.8-0.4,3.6-2.7,4.4-3.7
		c0.3-0.3,0.7-0.9,0.8-1.2c0.2-0.4,0.5-0.7,0.8-0.7c0.3,0,0.5-0.3,0.7-0.9c0.2-0.6,0.3-0.7,0.5-0.5c0.2,0.1,0.4,0.2,0.5,0.1
		c0.3-0.3,0.2-2-0.1-2c-0.1,0-0.2,0.1-0.2,0.2c0,0.1-0.2,0.2-0.5,0.2c-0.3,0-0.5,0.2-0.5,0.6c0,0.6-0.4,1-0.5,0.7
		c-0.1-0.1,0.1-1.1,0.3-2.1l0.4-1.9l1,1.6c0.6,0.9,1.4,1.9,1.9,2.3c1.1,0.8,1.2,1.1,0.3,1.1c-0.4,0-0.7,0.2-0.7,0.5
		c-0.1,0.3-0.4,0.5-0.9,0.6c-1.5,0.3-1.6,0.4-1.5,0.9c0.1,0.3,0,0.5-0.2,0.5c-0.7,0-2.4,1.2-4.1,2.8c-1,0.9-1.8,1.7-1.9,1.7
		c-0.4,0-2.1,1.4-2.4,1.9c-0.3,0.6-0.3,0.7,0.1,1c0.4,0.4,0.3,0.4-0.8,0.2c-1.2-0.2-2.5,0-2.5,0.3c0,0.1,0.6,0.2,1.4,0.2
		c1.7,0.1,3.4,0.7,5.6,2c1.2,0.8,1.8,0.9,2.5,0.9l0.9-0.1l-2-1.2c-1.1-0.6-2.6-1.4-3.3-1.6l-1.4-0.4l1.4-0.6
		c0.8-0.3,1.5-0.6,1.7-0.5c0.2,0.1-0.2,0.2-0.7,0.4c-1.5,0.5-1.3,0.8,0.7,1.1c1.5,0.2,1.8,0.4,2.6,1.2c0.5,0.5,1,1.1,1.1,1.3
		c0.2,0.5,0.8,0.6,0.8,0.1c0-1.1-2.4-3.3-3.5-3.3c-0.6,0-0.6,0-0.2-0.5c0.4-0.5,0.3-1-0.2-1c-0.2,0-0.4-0.3-0.5-0.6
		c-0.2-0.5-0.2-0.6,0.4-0.7c0.9-0.2,2.8,1.1,8,5.1c1.3,1,2.3,1.4,2.3,0.9c0-0.3-1.7-1.8-4.2-3.6c-4.2-3.1-4.6-3.3-5.3-3.3
		c-1.3,0,0.3-0.4,1.7-0.4c2.4,0,3.3-0.4,5.3-2.2c1.6-1.4,3.3-2.4,3.6-2.1c0.1,0.1-0.2,0.5-0.5,1c-0.3,0.5-0.6,1-0.6,1.1
		c0,0.1-0.6,0.6-1.3,1.1L210,97l1.9,0.2c2.3,0.3,4.1,0,5.5-0.7l1.1-0.6l-0.2,0.7c-0.2,0.8-0.2,3.7,0,4c0.2,0.3,0,0.3-1.1-0.4
		c-1.5-0.9-1.7-0.7-0.4,0.4c0.6,0.5,1.3,1.2,1.4,1.5c0.1,0.3-0.3,0-1.1-0.7c-2.5-2.2-4.8-3.1-9.8-3.6c-3.5-0.4-3.5-0.3-0.1,1.2
		c2,0.9,5.2,2.8,6.3,3.8c0.8,0.7,3.2,1.9,3.7,1.9c0.5,0,0.5,0,0.1-0.5c-0.2-0.3-1.2-0.9-2.2-1.3c-0.9-0.4-2.2-1.2-2.7-1.7
		c-0.6-0.5-1.4-1.2-2-1.6c-1.1-0.7-0.7-0.8,1.2-0.1c2.7,0.9,5.7,3,6.4,4.3c0.4,0.8,1.2,0.9,1.5,0.3c0.1-0.3,0.2-0.3,0.5,0
		c0.5,0.4,1.7,0.7,1.7,0.4c0-0.1,0.3-0.1,0.6,0c0.4,0.1,0.6,0.1,0.6,0c0-0.3,1.1,0,1.7,0.4c0.3,0.2,0.5,0.2,0.7,0
		c0.1-0.1-0.1-0.5,0.7-0.9c0.5-0.2,0.8-0.4,1.3,0.2c0.6,0.7,2.3,1.4,3.7,0.2c0.2-0.2,0.3-0.2,0.3,0c0,0.4,0.5,0.4,2.2-0.2
		c1.5-0.5,2.6-0.5,3.8,0.2c0.7,0.4,1.6,0.4,1.6,0.1c0-0.4,1.8-0.5,3-0.2c0.7,0.2,1.7,0.4,2.3,0.4c0,0,1.2,0.1,1.1,0
		c-0.2-0.1-1.4-0.5-1.4-0.5l-1.4-0.5l1.4-0.7c0.9-0.4,1.8-1.2,2.7-2.2c1.6-1.8,1.5-2.2-0.4-1.5c-1.2,0.5-1.2,0.5-1.1,0.1
		c0.2-0.6,0.4-1.7,0.3-1.7c-0.1,0-1.1,0.4-2.2,1c-1.1,0.5-2.1,1-2.1,1c0,0,0.3-1,0.7-2.1c0.9-2.7,0.7-3.1-1-1.8
		c-0.8,0.7-1.1,0.8-0.9,0.4c0.3-0.6,0.4-1.5,0.1-1.5c-0.1,0-0.7,0.5-1.3,1.1l-1.1,1.1l0.2-0.8c0.3-1.1-0.1-1.2-1-0.4
		c-0.9,0.8-1.8,2.6-2,3.8c-0.1,0.8,0.1,2.2,0.5,3.2c0.1,0.3,0,0.4-0.6,0.4c-0.4,0-1.1,0.2-1.6,0.3c-1,0.4-1,0.2-0.3-0.7
		c0.4-0.5,0.6-1.1,0.6-1.9c0.1-1.7-0.4-4.1-0.9-4.5c-0.3-0.3-0.4-0.6-0.3-1c0.1-0.5-0.1-0.8-1.2-1.8l-1.3-1.2l2.5,0.1
		c2.9,0.1,3.6,0,4-0.8c0.4-0.8-0.2-1.4-1.6-1.8c-1.9-0.5-4.5-1.5-4.2-1.6c0.2-0.1,0.6,0,1.1,0.2c0.4,0.1,1.6,0.4,2.6,0.6
		c1,0.2,2.2,0.6,2.7,1c0.5,0.3,1.1,0.5,1.2,0.5c0.4-0.1,0.4-0.8,0.1-1c-0.1-0.1-0.2-0.3-0.2-0.4c0-0.6,1.1,0.8,1.8,2.4
		c0.9,1.9,2.5,3.5,3.7,3.8c0.9,0.2,2.1-0.1,2.4-0.6c0.2-0.2,1-0.7,1.8-0.9c2.1-0.7,2.7-1.1,3.3-1.9l0.5-0.7L250.6,90.6z M97.1,61.6
		c-0.3,0-1.3-1.5-1.3-2c0-0.3,0.1-0.4,0.4-0.3c0.3,0.1,0.4,0.3,0.5,0.9c0,0.5,0.2,1,0.3,1.1C97.2,61.5,97.2,61.6,97.1,61.6z
		 M93.4,96.3l1,1.1c1.2,1.3,1.8,2.4,2,4c0.1,0.6,0.2,1.2,0.2,1.2c0,0-0.3-0.2-0.5-0.4c-0.7-0.6-1.1-1.5-2-3.9L93.4,96.3z M92.1,99.6
		c0.9,0.3,1.8,0.8,2.2,1.1v0c0.7,0.6,0.7,0.6-2.2-0.1c-0.3-0.1-0.7-0.4-1-0.8L90.5,99L92.1,99.6z M95,103.7c-1.3-0.3-4.7-2-5.2-2.6
		c-0.4-0.5-0.4-0.5,0.4-0.2c0.4,0.1,1.7,0.4,2.7,0.6c2,0.4,3.7,1.3,3.9,2.1v0C96.8,104.1,96.4,104.1,95,103.7z M97.4,101.3
		L97.4,101.3c0,1.2-0.1,2.2-0.2,2.2c-0.1,0-0.1-0.6-0.1-1.4c0.1-1.1-0.1-1.8-0.6-3.4c-0.4-1.1-0.8-2.3-1-2.6
		c-0.3-0.5-0.3-0.5,0.1-0.2c0.2,0.2,0.7,1,1.1,1.8C97.4,99,97.5,99.3,97.4,101.3z M99.1,100.9L99.1,100.9c-0.1,0.7-0.4,1.4-0.6,1.6
		c-0.3,0.4-0.3,0.3-0.2-0.7c0.1-1.1-0.3-4.2-0.7-5.2c-0.3-0.7,0.2-0.5,0.8,0.4C99.1,98.1,99.4,99.5,99.1,100.9z M204,87.2
		c0.2-0.4,0.3-0.8,0.3-1.1c0-0.5,0.4-0.5,0.6,0c0.3,0.7,0.1,3-0.2,3.6l0,0c-0.2,0.4-0.6,0.9-1,1.2l-0.6,0.6l0.4-0.9
		c0.2-0.6,0.3-1.3,0.3-1.8C203.7,88.2,203.8,87.5,204,87.2z M202.2,84c0.1,0,0.2,0.1,0.2,0.3c0,0.2,0.3,0.7,0.6,1.1
		c0.3,0.4,0.6,1,0.6,1.2v0c0,0.4-0.1,0.5-0.7,0.3C202.4,86.8,201.7,84,202.2,84z M201.3,85.2c0.2,0,0.7,1.5,0.7,2
		c0,0.1-0.4,0.3-0.8,0.5c-1,0.4-1.3,0.4-1.3,0C199.8,87.3,201.1,85.2,201.3,85.2z M200.6,84.2c0.1,0.1,0.1,0.3,0,0.5v0
		c-0.1,0.4-0.5,0.4-0.6,0.2C199.9,84.6,200.5,84,200.6,84.2z M197.6,84.8c0.1-0.4,0.6-0.3,0.6,0.1h0c0,0.1-0.2,0.2-0.3,0.2
		C197.6,85.2,197.5,85.1,197.6,84.8z M199.1,90.9c-0.3,0-1.4-1.7-1.6-2.4c-0.1-0.4-0.1-1.1,0-1.5l0.2-0.9l0.4,0.7
		c0.2,0.4,0.5,0.8,0.7,1c0.2,0.2,0.4,0.8,0.4,1.7h0C199.3,90.3,199.2,90.9,199.1,90.9z M199.6,86.4L199.6,86.4
		c-0.2,0.4-0.4,0.7-0.5,0.7c-0.3,0-0.5-0.9-0.3-1.5c0.2-0.7,0.4-0.8,0.8-0.3C199.8,85.6,199.8,85.8,199.6,86.4z M199.2,84.1
		c-0.5-0.2-0.4-0.4,0.2-0.5c0.3,0,0.5,0.1,0.5,0.2l0,0C199.8,84.1,199.5,84.2,199.2,84.1z M199.8,90.8c0-1.6,0.3-2.2,1.2-2.3
		c0.4-0.1,1-0.3,1.2-0.5c0.4-0.4,0.4-0.3,0.7,0.3c0.3,0.9,0.3,1.3-0.1,2.6c-0.3,0.7-0.5,1.1-0.9,1.2h0
		C200.4,92.4,199.8,92,199.8,90.8z M205.3,90.6c-0.1,0.4-0.4,1.1-0.6,1.5l0,0c-0.5,1.1-3.9,4.5-3.4,3.5c0.2-0.4,0.4-1.2,0.5-1.7
		c0.1-0.8,0.3-1,0.8-1.2c0.7-0.3,1.7-1.3,2.5-2.3C205.5,89.9,205.5,89.9,205.3,90.6z M245.3,100.8c0.3,0.3-3.4,2.2-5.1,2.6v0
		c-0.7,0.2-1.4,0.4-1.6,0.4c-0.4,0.2-0.7,0-0.7-0.4c0-0.1,0.5-0.6,1.1-1c0.8-0.6,1.4-0.9,2.3-1c0.7-0.1,1.8-0.3,2.5-0.5
		C244.6,100.8,245.2,100.7,245.3,100.8z M243.9,99.2c0,0.5-1.3,1.3-2.2,1.5v0c-0.6,0.1-1.2,0.3-1.5,0.3c-0.4,0.1-0.3,0,0.2-0.4
		C241.1,100,243.9,98.9,243.9,99.2z M241,96.4c0.2,0-1,3.4-1.6,4.6h0c-0.2,0.4-0.6,0.9-0.9,1.1l-0.6,0.4l0.2-1
		c0.1-0.6,0.3-1.4,0.5-1.8C238.9,98.8,240.7,96.4,241,96.4z M238.9,96l0.5-0.5l-0.4,0.8c-0.2,0.4-0.6,1.4-0.9,2.1h0
		c-0.3,0.7-0.5,2-0.6,2.9l-0.2,1.5l-0.2-1.4C236.9,99.5,237.6,97.1,238.9,96z M235.4,99c0.2-1,0.9-2.5,1.5-2.9
		c0.4-0.3,0.4-0.3,0.2,0.1c-0.4,1-0.7,3.4-0.7,4.8l0,0c0,0.8,0,1.5,0,1.5C235.9,102.6,235.2,100.2,235.4,99z M250.3,84
		c0,0.1-0.5,0.3-1.1,0.4v0c-1.5,0.4-1.9,0.3-2.4-0.2c-0.5-0.5-0.4-0.6,0.7-0.8C248.4,83.3,250.3,83.7,250.3,84z M244.6,82.8
		c-0.7-0.3-0.7-0.2,0.6-1c0.9-0.5,1.2-0.6,2-0.4c0.5,0.1,1,0.3,1.1,0.3c0.1,0.1-0.5,0.4-1.3,0.7l0,0
		C245.6,83.1,245.5,83.1,244.6,82.8z M248.6,80.5L248.6,80.5c0.8,0.7,0.6,0.7-1,0.2c-1.1-0.4-1.3-0.7-0.3-0.7
		C247.7,80,248.2,80.2,248.6,80.5z M246.9,77.3c0.3,0.1,0.4,0.2,0.2,0.3c-0.1,0-1.2,0.1-2.4,0.1c-1.8,0-2.1,0-1.8-0.3
		C243.3,77.1,246.1,77,246.9,77.3z M242.4,76.6c0.4-0.5,2.4-1.5,2.6-1.3c0.3,0.3-0.4,1-1.3,1.1h0c-0.5,0.1-1.1,0.2-1.3,0.3
		C242.2,76.9,242.1,76.9,242.4,76.6z M236.2,79.5c1.3-1.9,3-3.8,3.5-3.8c0.5,0,0.5,0.1-0.3,1.5l0,0c-0.4,0.8-1.3,1.7-2.5,2.7
		c-1,0.8-1.9,1.5-1.9,1.4C235.1,81.2,235.6,80.4,236.2,79.5z M231.9,84.8c0.7-0.3,2-1.3,3-2.2c0.9-0.9,2.3-2.1,3.1-2.7l1.4-1
		l-0.9,1.6c-0.5,0.9-1,1.8-1.2,2c-0.2,0.2-0.3,0.5-0.3,0.6c0,0.4-2.4,2.2-2.8,2.2c-0.3,0-0.3-0.1-0.1-0.3c0.3-0.3,0.4-1.1,0.1-1.1
		c-0.1,0-0.3,0.2-0.5,0.4c-0.2,0.2-0.6,0.5-1,0.7l0,0c-0.4,0.2-1,0.3-1.3,0.3C230.8,85.4,230.8,85.3,231.9,84.8z M231,77
		c-1.6,1.7-1.6,1.7-2.7,4.9c-0.6,1.6-1.2,2.8-1.7,3.5h0c-0.5,0.6-0.9,1-1,1c-0.2,0,0-0.8,0.7-3.2c0.1-0.4,0.2-1.3,0.2-2.1
		c0-1.2,0.1-1.5,0.9-2.5c1.4-1.9,3.4-3.3,4.5-3.1C232.3,75.5,232.2,75.7,231,77z M222.6,83.5L222.6,83.5c-1.3,0.7-2.4,1.2-2.4,1.2
		c0,0,0.2-0.5,0.5-1c0.6-1.1,0.8-2,0.3-2.2c-0.2-0.1-1.1,0.1-1.9,0.4c-0.9,0.3-1.6,0.5-1.7,0.4c0,0,0.2-1.1,0.4-2.3
		c0.5-2.5,0.4-2.8-0.8-2.4c-0.9,0.3-1.1,0.2-0.7-0.4c0.3-0.6,1.7-0.9,1.9-0.5c0.1,0.2,0.4,0.2,0.7,0.2c0.3-0.1,0.5,0,0.6,0.1
		c0.1,0.2,0.2,0.1,0.5-0.1c0.4-0.4,0.3-0.9-0.3-0.9c-0.2,0-0.3-0.1-0.3-0.2c0-0.4-1.2-0.3-2,0.1c-0.4,0.2-0.7,0.3-0.8,0.1
		c-0.2-0.2-0.8-0.2-1.6,0.2c-0.4,0.2-0.4,0.1-0.4-0.5c0.1-1-0.6-1-2,0c-0.7,0.5-1.2,0.8-1.1,0.7c0.1-0.1,0-0.3-0.1-0.5
		c-0.3-0.4,0.2-0.8,2.1-2.3l0.7-0.5l-0.4,0.7c-0.5,0.8-0.2,0.9,0.4,0.2c0.5-0.6,2.7-1.3,3.1-1c0.2,0.1,0.5,0.2,0.8,0.1
		c0.3-0.1,0.5,0,0.5,0.1c0,0.1,0.4,0.3,0.8,0.3c0.6,0,0.8,0.1,0.8,0.4c0,0.3,0.1,0.3,0.6,0.2c0.5-0.1,0.6,0,0.7,0.4
		c0.1,0.4,0.2,0.5,0.6,0.5c0.3,0,0.5,0.1,0.5,0.3c0,0.2,0.5,0.8,1.1,1.5c1,1,1.1,1.2,1,2.1c-0.1,0.8,0,1,0.3,0.9
		c0.3,0,0.4,0.2,0.5,1c0.2,1.8,0.2,2-0.3,1.9C225.1,82.4,224,82.8,222.6,83.5z M224.8,86c0,0.1-0.1,0.4-0.2,0.6
		c-0.1,0.2-0.2,0.2-0.2,0.1c0-0.1,0.1-0.4,0.2-0.6C224.7,86,224.8,85.9,224.8,86z M218.3,87.7c-0.1,0-0.7,0.1-1.2,0.2l-0.9,0.2
		l0.4-0.6c0.3-0.5,4.4-2.5,4.6-2.3c0.2,0.2-0.4,1.9-0.7,2.4h0c-0.2,0.2-0.7,0.6-1.2,0.7c-0.8,0.3-0.9,0.3-0.8-0.2
		C218.5,87.9,218.4,87.7,218.3,87.7z M214.5,90.2c-0.9,0-1,0-0.5-0.3c0.7-0.5,2.9-1.4,3.2-1.3c0.4,0.1-0.4,1.2-0.9,1.2
		c-0.2,0-0.5,0.1-0.6,0.2v0C215.6,90.1,215.1,90.2,214.5,90.2z M215.6,82.8c-0.6,0.2-1.4,0.4-1.8,0.6l-0.7,0.4l0.1-1
		c0.2-1.7,1.1-3.1,2.5-3.9c0.7-0.4,1.3-0.7,1.3-0.6c0.1,0.1,0,0.5-0.1,1c-0.1,0.5-0.2,1.4-0.2,2l0,1.1L215.6,82.8L215.6,82.8z
		 M214.3,77.6c0.1-0.5,0.4-0.8,0.7-1c0.8-0.3,0.8-0.3,0.7,0.8c-0.1,0.6-0.4,0.9-0.8,1.2C214.1,79.1,214,79,214.3,77.6z M219.2,84.6
		c-0.2,0.2-0.7,0.6-1.1,0.8c-0.6,0.3-0.7,0.3-0.6,0c0.1-0.2,0.2-0.7,0.3-1.2c0.1-0.7,0.3-0.9,1.1-1.2c0.5-0.2,1-0.3,1.1-0.3
		C220.2,82.8,219.6,84.1,219.2,84.6L219.2,84.6z M219.9,90.1c0.1-0.2,0.1-0.5,0.1-0.6c0-0.1,0.6-0.5,1.4-0.9
		c0.8-0.4,1.4-0.6,1.4-0.5c0,0.2-1.3,1.5-2.1,2l0,0C220.1,90.5,219.7,90.5,219.9,90.1z M222.8,87L222.8,87c-0.9,0.4-1.4,0.5-1.2,0.2
		c0.1-0.1,0.2-0.6,0.4-1.2c0.2-0.8,0.4-1.1,1.2-1.5c1.1-0.6,1.2-0.6,1.1-0.2c-0.1,0.2-0.2,0.8-0.4,1.3
		C223.7,86.4,223.5,86.7,222.8,87z M212.8,79L212.8,79c-0.2,0-0.8,0.3-1.4,0.6l-1.1,0.6l0.1-0.7c0.1-0.4,0.4-1.1,0.7-1.5
		c0.6-0.8,2.4-2.3,2.6-2.1C214,75.9,213.1,79,212.8,79z M222.3,69.6c1-0.7,2.5-1.3,2.7-1.1c0.1,0,0,0.7-0.2,1.5
		c-0.2,0.8-0.3,1.9-0.4,2.6c0,0.7-0.2,1.5-0.3,1.8l0,0c-0.3,0.8-0.6,0.8-1.1-0.1c-0.2-0.4-0.6-0.7-0.7-0.7c-0.2,0-0.3-0.1-0.4-0.3
		c-0.1-0.2-0.5-0.4-0.9-0.5l-0.9-0.3l0.5-1.1C221,70.7,221.6,70.1,222.3,69.6z M221,69.5v-1.2c0-1.9,0.1-1.9,1.9-1.9
		c1.6,0,1.6,0,1.6,0.6c0,0.5-0.2,0.7-1.1,1.1c-0.6,0.3-1.4,0.7-1.8,1L221,69.5z M225.5,71.3c0.1-0.3,2.8-2.5,3.8-3.1
		c0.2-0.1,0.2,0.2-0.1,0.9c-0.3,0.8-0.8,1.5-1.9,2.5h0c-0.9,0.8-1.7,1.4-1.8,1.4C225.3,73.1,225.3,71.8,225.5,71.3z M225.6,66.8
		c0.5-0.3,0.8-0.3,0.6,0.2c-0.1,0.2-0.1,0.5-0.1,0.6l0,0c0,0.4-0.5,0.2-0.6-0.2C225.3,67.2,225.4,67,225.6,66.8z M227.7,68.1
		c0.8-0.4,0.5-0.1-0.3,0.5l0,0c-0.4,0.3-0.9,0.5-0.9,0.5c-0.1,0,0-0.5,0.2-1.1c0.2-0.6,0.3-1.2,0.3-1.2c0,0,0.2-0.1,0.5-0.1
		c0.6,0,0.8,0.7,0.3,1c-0.3,0.1-0.5,0.4-0.5,0.5C227.2,68.2,227.4,68.2,227.7,68.1z M227.2,74.8c1.5-1.7,2.5-3.2,2.5-3.8
		c0-0.4,1-3.7,1.2-3.9c0,0,1.4,0.2,3,0.5c3.2,0.7,3.9,1.1,3.7,2.2c-0.1,0.6-0.1,0.6-2,0.6c-1.7,0-2,0.1-3,0.7
		c-1.2,0.8-4.4,4-5.8,5.8c-0.5,0.7-1,1.2-1,1.1l0,0c-0.1-0.1-0.3,0-0.4,0.2c-0.3,0.2-0.3,0.2-0.2-0.4
		C225.4,77,225.9,76.3,227.2,74.8z M226.8,73c0.7-0.4,1.3-0.8,1.4-0.9c0.1,0-0.2,0.5-0.7,1.2c-1.1,1.6-1.3,1.8-1.3,1.5
		c0-0.1-0.2-0.4-0.3-0.6C225.6,73.9,225.7,73.7,226.8,73z M225.4,75.8L225.4,75.8c-0.2,0.7-0.3,0.8-1,0.3c-0.5-0.4-0.5-0.4,0.1-0.8
		C225.3,74.6,225.6,74.9,225.4,75.8z M220.2,66.7c-0.1,0.3-0.2,1.4-0.2,2.6c0,1.4-0.1,2.2-0.4,2.6l0,0c-0.4,0.6-0.9,0.7-1.5,0.2
		c-0.3-0.2-0.7-0.3-1.3-0.1c-0.5,0.1-0.9,0.2-0.9,0.1c-0.1-0.1,1.6-4.3,2.1-5.1c0.4-0.7,0.6-0.8,1.4-0.8
		C220.3,66.2,220.3,66.2,220.2,66.7z M215.9,69c-0.1,0.6-0.3,1.5-0.4,1.9h0c-0.2,0.5-0.6,0.9-1.4,1.3c-1.2,0.6-1.5,0.5-0.8-0.5
		c0.2-0.3,0.5-1,0.7-1.5c0.4-1.3,1.2-2.4,1.7-2.4C216,67.8,216.1,68,215.9,69z M212.6,71.5c-0.3,0.3-1.6,0.9-1.6,0.7
		c0-0.1,0.3-0.4,0.7-0.8c0.4-0.4,0.8-0.9,1-1.1c0.2-0.2,0.4-0.4,0.5-0.4C213.4,70,213,71.1,212.6,71.5z M243.1,72.6l2.4,0.7
		l-1.4-0.1c-0.8-0.1-2.3-0.3-3.3-0.5c-2.4-0.5-5.4-0.5-6.9,0c-0.6,0.2-1.5,0.7-2,1.1v0c-0.5,0.4-1,0.7-1.2,0.7
		c-0.7,0,2.6-3.1,3.6-3.4C235.6,70.8,238.7,71.2,243.1,72.6z M240,69.9c-1.1,0.5-1.3,0.4-0.6-0.1c0.5-0.4,1.5-0.6,1.5-0.3
		C240.8,69.5,240.4,69.7,240,69.9L240,69.9z M242.9,70.9c-1.2,0-2.1-0.1-2.1-0.2c0-0.3,2.7-0.3,3.6,0
		C244.8,70.8,244.3,70.9,242.9,70.9z M238.5,59.3c0.2,0,0.4,0.1,0.4,0.2h0c0,0.3,0,0.3-0.5,0C238.1,59.3,238.1,59.3,238.5,59.3z
		 M237.1,58.3c0.3-0.2,0.3-0.2,0.2,0.2l0,0c-0.1,0.5-0.2,0.6-0.4,0.3C236.8,58.7,236.9,58.5,237.1,58.3z M235.6,57.7
		c0.7-0.8,1-0.7,0.6,0.1l0,0c-0.2,0.4-0.4,0.7-0.4,0.7C235.1,58.3,235.1,58.2,235.6,57.7z M228.1,35.8c1.2,0.1,2.1,0.4,3.8,1.2
		c2,1,7.3,4.7,8.1,5.7c0.3,0.3,0.2,0.3-0.5,0c-1.3-0.5-1.3-0.4-0.1,0.4c1.4,1,3,2.5,3.8,3.7c0.4,0.5,0.7,1.1,0.7,1.1
		c0,0.1-0.9-0.7-2.1-1.6c-1.1-1-2.1-1.7-2.2-1.6c-0.1,0.1,0,0.2,0.2,0.3c0.5,0.2,4.6,4.8,5,5.8c1,2,0.8,2-1.2,0
		c-1.6-1.7-1.8-1.8-1.1-0.8c2.1,2.9,2.8,4.1,3,5.3c0.1,0.7,0.2,1.3,0.2,1.4c-0.1,0.1-0.5-0.6-1-1.5c-0.5-0.9-0.9-1.5-1-1.5
		c-0.1,0.1,0.3,0.9,0.7,2c0.4,1,0.9,2.2,1,2.5l0,0c0.1,0.4,0.1,0.7,0,0.7c-0.2,0-0.6-0.5-3.5-5.1c-5.1-8.1-7-10.7-9.7-13.4
		c-1.7-1.7-3.8-3.3-4.9-3.8C226,35.8,226.3,35.6,228.1,35.8z M138,50.3c-0.7,1.3-0.8,1.6-0.8,1.3c0-0.3,1.2-2.5,1.3-2.5
		C138.6,49,138.4,49.6,138,50.3z M114.9,58.1c0.3,0,2.1,1.1,2.1,1.3l0,0c0,0.1-0.1,0.1-0.2,0.1c-0.1,0-0.5-0.1-0.8-0.1
		C115.3,59.2,114.3,58.1,114.9,58.1z M116.5,60.3c0,0.2-0.5,0.1-0.6-0.1c-0.1-0.1,0-0.2,0.2-0.1C116.3,60.2,116.5,60.3,116.5,60.3z
		 M111.8,60.2c0.4-1,0.5-1.1,2-0.4c1.7,0.8,2,1.2,1.9,2v0c-0.1,0.3-0.3,1-0.4,1.4l-0.3,0.8l-1.7-1.6C111.6,61,111.5,60.9,111.8,60.2
		z M114.7,65.7c-0.2,0.8-0.3,0.8-0.9-0.6c-0.4-1-0.2-1.2,0.6-0.6C114.8,64.9,114.8,65.1,114.7,65.7z M110.9,59.1
		c0.1,0,0.2,0.1,0.2,0.2c0,0.1,0,0.4,0,0.6h0c0,0.3-0.1,0.5-0.2,0.5c-0.1,0-0.2-0.3-0.2-0.7C110.7,59.3,110.8,59,110.9,59.1z
		 M110.1,61.9l0.1-1l1.2,1.1c1,0.9,1.2,1.2,1.2,1.9h0c0,0.5-0.1,0.8-0.1,0.8c-0.1,0-0.6-0.2-1.1-0.4C110.2,63.9,110,63.5,110.1,61.9
		z M110.3,65.7c0.3-0.9,0.5-0.9,1.9-0.2c1.2,0.6,1.4,1,1.4,2.8l0,0c0,1.2-0.2,1.4-0.7,0.8c-0.2-0.2-0.9-0.6-1.6-0.9
		C110,67.6,109.8,67.3,110.3,65.7z M113.2,70.4c0.6,0.6,0.6,0.8,0.5,1.7c-0.1,0.6-0.2,0.9-0.4,0.9c-0.1-0.1-0.7,0.4-1.3,1v0
		c-0.6,0.6-1.1,1.1-1.2,1.1c-0.3,0-0.7-1.2-0.9-2.9c-0.1-1-0.3-2.2-0.3-2.7c-0.1-0.7-0.1-0.9,0.2-0.9
		C110.6,68.5,112.5,69.6,113.2,70.4z M109.3,59.5c0.2,0,0.4,0.2,0.4,0.3v0c0,0.4-0.5,0.4-0.6,0C108.9,59.6,109,59.5,109.3,59.5z
		 M106.1,61.6c0.1-0.2,0.2-0.1,0.3,0.2c0.2,0.8,0.7,0.5,0.8-0.4c0.1-0.6,0.1-0.7,0.4-0.5c0.4,0.3,0.9,0.1,0.7-0.4
		c-0.1-0.3,0-0.3,0.5-0.1c0.5,0.2,0.6,0.5,0.7,1.6c0.1,0.7,0.2,1.5,0.3,1.7c0.2,0.4,0.1,0.4-0.7,0.1c-1.4-0.6-2-0.5-1.8,0.5
		c0,0.1-0.2,0.3-0.4,0.4c-0.3,0.1-0.5,0-0.6-0.4c-0.1-0.3,0-0.6,0.1-0.8c0.1-0.1,0.1-0.5-0.1-1C106.1,62.2,106,61.7,106.1,61.6z
		 M109.1,66.4c-0.2,0-1.5-2-1.3-2.1c0.1-0.1,0.5,0.1,0.9,0.3c0.7,0.4,0.8,0.5,0.7,1.1C109.4,66.1,109.2,66.4,109.1,66.4z
		 M109.4,67.4c0,0.6-0.6,0.7-0.8,0.1c-0.3-1-0.2-1.1,0.3-0.8C109.1,66.8,109.4,67.2,109.4,67.4z M107.1,67.8
		c-0.5-0.6-0.6-2.1-0.1-2.1c0.3,0,0.9,1.5,1.1,2.5l0,0c0.2,1,0,1.1-0.8,0.4c-0.5-0.4-0.5-0.4-0.1-0.3
		C107.6,68.4,107.6,68.4,107.1,67.8z M105.4,62.1c0.1,0,0.2,0.2,0.2,0.4h0c0.1,0.2,0,0.4-0.1,0.4c-0.1,0-0.2-0.2-0.2-0.4
		C105.3,62.3,105.4,62.1,105.4,62.1z M100.6,58.9c0.1-0.1,0.3,0.1,0.5,0.5c0.2,0.3,0.4,0.6,0.3,0.6C101.2,60,100.5,59,100.6,58.9z
		 M101,60.8L101,60.8c0.4,0.5,0.6,1.1,0.5,1.2c-0.1,0.2-1.9-2.2-1.9-2.6C99.6,59.1,100.3,59.8,101,60.8z M99,57.8L99,57.8
		c0.6,0.6,0.6,0.7,0.2,0.7c-0.3,0-0.6-0.2-0.8-0.6C98,57,98.2,57,99,57.8z M98.7,62.3c-1.2-1.2-1.2-1.4-1.3-2.6c0-0.7,0-1.3,0.1-1.3
		c0.4,0,3.1,4.1,3.1,4.8C100.5,63.8,100,63.6,98.7,62.3z M99.6,64.5c-0.5-0.2-0.4-0.2,0.5-0.2c0.6,0,1.2,0.1,1.4,0.2
		C101.9,64.8,100.5,64.8,99.6,64.5z M101.7,63.4c-0.1,0.2-0.1,0-0.1-0.3c0-0.3,0.1-0.5,0.1-0.3v0C101.7,62.9,101.7,63.2,101.7,63.4z
		 M101.8,58.4c0.3-0.3,0.8,0.4,1.1,1.5h0c0.2,0.6,0.2,1.1,0.2,1.2c0,0-0.4-0.5-0.8-1.2C102,59.1,101.7,58.5,101.8,58.4z M103.2,63.7
		c-0.4-0.6-0.6-1.1-0.5-1.1c0.2,0,1.1,1.1,1.6,1.8l0,0c0.1,0.2,0.1,0.3-0.1,0.3C104,64.7,103.6,64.2,103.2,63.7z M104.6,66.2
		c-0.8-0.5-1-0.7-0.6-0.7c0.3-0.1,0.6,0.1,0.9,0.5l0.4,0.6l0-1.3c0-1.1,0.1-1.2,0.3-0.7c0.1,0.3,0.2,1,0.2,1.5l-0.1,0.9L104.6,66.2z
		 M107.3,69.7c1.4,1,1.8,1.5,1.9,2.1c0.3,1.5,0.1,1.6-1.4,0.3c-1.6-1.4-1.9-1.7-2.4-3C105,68,105.1,68.1,107.3,69.7z M108.6,74.4
		l-0.4,0.5l-1-1.5l-1-1.5l1,0.7c0.6,0.4,1.2,0.8,1.4,0.9h0C109.1,73.9,109,73.9,108.6,74.4z M109.3,75.9c-0.1-0.3-0.1-0.6-0.1-0.7
		c0-0.3,0.6-0.2,1.1,0.2c0.4,0.3,0.4,0.4,0.1,0.7h0C109.9,76.5,109.4,76.5,109.3,75.9z M108.9,82.1c0-0.4,0.1-1.2,0.1-1.7
		c0.1-0.7,0.2-0.8,0.6-0.7c0.4,0.1,0.5,0,0.3-0.9c-0.2-1-0.1-1.1,0.9-2.2c0.6-0.6,1.1-1.3,1.1-1.5c0-0.3,0.1-0.3,0.3-0.1
		c0.2,0.2,0.4,0.2,0.6,0c0.2-0.2,0.2,0,0.1,0.7c-0.2,1.1-0.5,1.9-0.5,1.2c0-0.2-0.1-0.4-0.2-0.4c-0.3,0-0.3,0.6,0,1.2
		c0.2,0.3,0,0.8-0.4,1.8c-0.8,1.8-1.2,1.8-0.9-0.1c0.1-0.5,0.3-0.7,0.5-0.6c0.4,0.1,0.4-0.1,0.1-1c-0.4-1.1-0.8-0.3-0.9,1.9l0,0
		c-0.1,2-0.2,2.1-0.9,2.7l-0.8,0.6L108.9,82.1z M95.4,65l0.3-1.5l0.7,1.5c0.4,0.8,0.7,1.7,0.7,1.9c0,0.3-0.3,0.9-0.7,1.3
		C95.1,69.6,94.8,68.3,95.4,65z M93.8,62.9c0,0,0.3,0.3,0.5,0.8c0.4,0.8,0.4,1.1,0.2,2.2l-0.3,1.3L94,65.1
		C93.8,63.9,93.8,62.9,93.8,62.9z M90.4,67.7c-1.4-1-1.5-1.2-0.2-0.6c0.5,0.3,1.7,0.8,2.7,1.3c1,0.5,2,1.1,2.4,1.3
		c0.3,0.3,0.5,0.5,0.5,0.6C95.6,70.5,91.7,68.5,90.4,67.7z M90.1,70.9c-0.4-0.2,0.9-0.5,2.5-0.5c1.4,0,1.5,0.4,0.2,0.6
		C91.3,71.2,90.5,71.2,90.1,70.9z M94.9,72.7c-1.5,0.2-3.4,0.5-4.2,0.5l-1.4,0.1l1.5-0.4c4.5-1.3,5.5-1.5,7.3-1.6
		c1.1-0.1,2.2-0.1,2.5,0c0.7,0.2,2.6,1.8,3.3,2.8v0c0.3,0.4,0.5,0.7,0.4,0.7c-0.1,0-1.1-0.6-2.1-1.3C100.7,72.4,98.4,72.1,94.9,72.7
		z M103.7,77.1c-0.7-0.8-1.3-1.5-1.2-1.5c0.3-0.3,2,0.4,3.1,1.4c1.9,1.7,2.5,2.7,2.6,4.7c0.1,1.3,0,1.8-0.3,2v0
		c-0.4,0.3-0.9,0.3-1,0.1c-0.1-0.1-0.3-0.9-0.6-1.7C105.5,79.2,105.1,78.5,103.7,77.1z M99.9,82.9c0.2,0.3,0.9,0.9,1.6,1.3
		c0.7,0.4,1.2,0.9,1.2,1c0,0.4-0.4,0.2-1.4-0.5c-0.8-0.6-1-0.7-1-0.3c0,0.2,0.1,0.6,0.2,0.9l0,0c0.1,0.3,0.2,0.5,0,0.5
		c-0.3,0-2-1.3-2.4-1.8c-0.5-0.5-2.8-4.5-2.8-4.7C95.3,78.9,99.5,82.3,99.9,82.9z M94.7,75.7c0.4-0.4,3.2,2.6,4.4,4.7
		c0.3,0.5,0.5,0.9,0.5,0.9c-0.1,0-2.4-1.9-3.1-2.5C95.7,78.2,94.5,76,94.7,75.7z M89.9,75.4c0.5,0,2.8,1.3,2.8,1.5
		c0,0.2,0,0.2-0.7-0.2c-0.3-0.2-0.9-0.3-1.3-0.3c-0.5,0-0.8-0.2-1-0.5C89.4,75.5,89.4,75.4,89.9,75.4z M88.1,77.3
		c0.4,0,1.1-0.1,1.7-0.1c0.6,0,1.4,0.1,1.7,0.2c0.7,0.3,0.6,0.3-0.6,0.3c-0.7,0-1.6,0.1-2,0.1c-0.8,0.2-1.5,0-1.5-0.3
		C87.5,77.4,87.7,77.3,88.1,77.3z M85.7,80.9c0.5-0.6,1.6-1,2.1-0.7c0.4,0.2,0.3,0.3-0.6,0.5v0c-0.6,0.2-1.2,0.3-1.4,0.4
		C85.5,81.2,85.5,81.2,85.7,80.9z M89.9,82.2l0.7,0.5L89.9,83c-0.6,0.2-0.9,0.2-2.1-0.3c-1.6-0.6-1.7-0.9-0.5-1.1
		C88.2,81.3,89.1,81.5,89.9,82.2z M85.3,84.5c-1-0.3-1-0.3-0.6-0.6c0.5-0.4,2.7-0.5,3.2-0.1c0.2,0.1,0.2,0.3-0.2,0.7v0
		c-0.5,0.5-0.6,0.6-1.1,0.4C86.5,84.8,85.9,84.6,85.3,84.5z M85.1,88.3c0.3-0.2,0.6-0.1,1.2,0.2c0.4,0.2,0.7,0.5,0.7,0.6
		c0,0.5-0.9,0.6-1.6,0.2C84.5,88.9,84.4,88.6,85.1,88.3z M85.3,91c0-0.2,3.4-1.8,3.8-1.8c0.6,0-0.3,0.6-1.9,1.3
		C86,91.1,85.3,91.3,85.3,91z M89.5,93.5c-0.6-0.1-3.7-1.2-3.6-1.4c0.1-0.1,0.6-0.3,1.2-0.5c0.9-0.3,1.1-0.3,1.3-0.1
		c0.1,0.2,0.8,0.4,1.5,0.5l1.2,0.2l-0.7,0.7C90,93.2,89.6,93.5,89.5,93.5z M92.6,93.3c-1,1.1-1.8,1.5-2.2,1.1
		c-0.3-0.3,1.8-2.3,2.7-2.6C94.3,91.4,94.3,91.5,92.6,93.3z M93.2,90.6L93.2,90.6c-0.8,0.3-3.9,0.5-3.9,0.1c0-0.1,0.3-0.4,0.7-0.6
		c0.4-0.2,1.3-1,2.1-1.8c1.6-1.6,3-2.1,3.6-1.3c0.2,0.2,0.3,0.6,0.3,0.7C96,88.2,94,90.3,93.2,90.6z M94.9,86
		c-1.3-0.2-2.2,0.2-3.2,1.3c-0.4,0.4-0.9,0.7-1.2,0.7v0c-0.3,0-1,0.1-1.6,0.3l-1.1,0.3l-1.1-1l-1.1-1l1.3-0.7c1.1-0.6,1.5-0.7,3-0.6
		c2.4,0.1,6.3-1,5.7-1.5c-0.1-0.1-1.3,0-2.7,0.2c-2.6,0.3-3.7,0.2-2.7-0.2c0.6-0.3,2.4-0.7,3.8-0.9c1.2-0.2,0.9-0.6-0.4-0.6
		c-1,0-3-0.8-3-1.1c0-0.2,3.6,0,4,0.3c0.1,0.1,0.3,0,0.3-0.1c0-0.4-1.3-0.9-3.2-1.2c-2.3-0.3-3.8-0.9-3.5-1.3
		c0.4-0.4,3.4-0.5,4.1-0.2c1.8,0.9,3.1,2,3.6,3c0.5,0.8,0.5,1.1,0.2,1.1c-0.5,0-0.7,0.7-0.2,1.1c0.4,0.3,0.4,0.3-0.1,0.5
		c-0.6,0.2-0.7,1-0.2,1.2C96.4,85.9,96,86.1,94.9,86z M103.1,86.6c0.1,0.3-0.5,0.6-2,1.1c-2.1,0.7-2.1,0.7-2.4,0.3
		c-0.2-0.3-0.5-0.4-0.9-0.4c-0.4,0-0.7-0.1-0.9-0.4c-0.3-0.4-0.3-0.5,0.2-0.9c0.5-0.4,0.5-0.4-0.2-0.8l-0.7-0.4l0.6-0.1
		c0.4-0.1,0.6-0.3,0.5-0.6c0-0.3,0.2-0.2,0.7,0.4c1.2,1.4,1.8,1.7,3.5,1.6C102.7,86.3,103.1,86.3,103.1,86.6L103.1,86.6z
		 M103.7,91.3c-3.2,0.1-4.3,0.1-4.3-0.1c0-0.4,0.8-0.8,1.5-0.8c0.3,0,1.5-0.3,2.6-0.7c1.7-0.6,2.1-0.7,2.8-0.5
		c0.5,0.1,1.4,0.3,2,0.3c0.9,0,1.4,0.2,2.1,0.7c0.5,0.4,1.8,1,2.8,1.3c1,0.3,1.9,0.7,1.9,0.7v0c0,0.3-2,0-3-0.5
		C110.7,91.1,109.6,91,103.7,91.3z M116.9,84.6L116.9,84.6c0.3,1.2,0.3,1.3-0.7,0.7c-0.5-0.3-0.6-0.5-0.5-0.8
		c0.1-0.2,0.2-0.6,0.3-0.8C116.2,83,116.6,83.4,116.9,84.6z M116.7,82c0-0.2,0.1-0.4,0.2-0.5c0.1-0.1,0.2,0.1,0.2,0.3
		c0,0.3-0.1,0.5-0.2,0.5C116.8,82.3,116.7,82.2,116.7,82z M116.3,86.4c1.8,0.7,2.9,2.1,1.3,1.6c-1.3-0.4-1.7-0.3-1.5,0.3v0
		c0.2,0.5,0.1,0.5-0.7,0.3c-0.6-0.1-1.5-1-1.5-1.4c0-0.2,0.3-0.5,0.6-0.8l0.6-0.5L116.3,86.4z M120.8,90.1c0,0.4-1.9,0.1-2.6-0.4
		c-0.9-0.6-1.2-1.1-0.7-1.1C117.9,88.5,120.8,89.9,120.8,90.1z M114.7,89.9L114.7,89.9c0.1,0.7,0,0.7-1.4-0.2
		c-1.2-0.8-1.6-1.4-0.9-1.4C113,88.3,114.6,89.3,114.7,89.9z M112.2,90.2c-0.2,0-1.6-1-1.6-1.1c0-0.4,0.9,0,1.3,0.5
		C112,89.9,112.2,90.2,112.2,90.2z M111.3,100.4c-0.2-0.1-0.8-0.2-1.3-0.2c-0.7,0-0.9-0.1-0.9-0.5c0-0.8,2.9-2.6,4.3-2.6
		c0.6,0,2.1,0.8,2.1,1.2c0,0.1-0.2,0.3-0.5,0.4c-0.3,0.1-1.1,0.6-1.8,1.1l0,0C111.8,100.8,111.8,100.8,111.3,100.4z M112,96.6
		c-0.3,0.1-1.3,0.7-2.1,1.2v0c-2.1,1.4-2.5,1.3-1.2-0.3c0.8-1,2-1.5,3.2-1.3l0.7,0.1L112,96.6z M110.2,94c-0.3,0.3-0.3,0.3-1.1-0.1
		c-0.3-0.2-0.8-0.4-1.1-0.5c-0.9-0.3,1-0.6,2.7-0.4l1.5,0.2l-0.9,0.3C110.9,93.6,110.3,93.9,110.2,94L110.2,94z M106.1,92.6
		c0.2-0.3,2.1-0.7,3.2-0.7c0.9,0,0.8,0-0.3,0.2c-0.7,0.1-1.6,0.3-2,0.4v0C106,92.9,106,92.9,106.1,92.6z M107.6,103
		c0.1,0.2-0.4,0.5-1.1,0.9l0,0c-0.6,0.3-1.3,0.6-1.5,0.6c-0.5,0-1.5-0.6-1.5-0.9c0-0.2-0.3-0.5-0.6-0.8l-0.6-0.5l0.5-0.1
		c0.7-0.1,0.7-0.5-0.1-0.8c-0.3-0.1-0.7-0.5-0.7-0.7c-0.2-0.6,0.1-1.6,0.4-1.6c0.1,0,0.2,0.1,0.1,0.2c-0.1,0.1,0.2,0.6,0.6,1
		c0.7,0.7,0.8,0.7,0.9,0.3c0-0.2,0-0.6-0.2-0.8c-0.2-0.3-0.2-0.4,0-0.6c0.3-0.2,0.3-0.3,0-0.5c-0.2-0.1-0.6-0.2-0.9-0.1
		c-0.7,0.2-0.8-0.5-0.3-1.3c0.2-0.3,0.4-0.7,0.3-0.7c-0.1-0.1,0.1-0.3,0.3-0.5c0.3-0.2,0.4-0.6,0.3-0.8c-0.2-0.4,1.1-1.7,1.6-1.7
		c0.2,0,0.5,0.2,0.6,0.4c0.1,0.2,0.4,0.4,0.9,0.4c1.1,0,2.5,0.4,2.7,0.8c0.1,0.2-0.5,1-1.3,1.8c-0.8,0.8-1.4,1.7-1.4,1.9
		c0,0.5,0.5,1,1,1c0.3,0,0.4,0.2,0.4,0.6c0,0.4,0.2,0.7,0.5,0.8c0.5,0.2,0.5,0.2-0.2,0.6C107.7,102.3,107.4,102.6,107.6,103z
		 M114.3,102.5c-0.7,0.8-0.8,0.8-2.9,0.9c-2,0.1-3-0.1-3-0.6c0-0.4,2.4-1.4,3.1-1.3c0.7,0.1,1.2-0.2,3-1.7c0.6-0.5,1.2-0.9,1.2-0.8
		C116,99.4,115,101.7,114.3,102.5z M116,97.1c0,0-0.7-0.4-1.4-0.8c-0.7-0.5-1.7-0.9-2.1-1c-1.6-0.3-1.7-0.3-1.4-0.7
		c0.6-0.7,2-0.3,3.7,1c0.4,0.3,0.9,0.8,1,1h0C115.9,96.9,116,97.1,116,97.1z M121.5,95.4c0.5,0.5,1.1,1,1.3,1.2l0,0
		c0.4,0.2,0.3,0.3-0.6,0.3c-1.3,0-3.5-0.5-4.5-1c-0.7-0.4-2.7-2.5-2.5-2.7c0.2-0.2,3.4,0.5,4.4,0.9C120.2,94.3,121,94.9,121.5,95.4z
		 M119.1,93.2c-0.8-0.4-0.8-0.4-0.2-0.4c0.3,0,0.8,0.2,0.9,0.4v0C120.3,93.7,120.1,93.7,119.1,93.2z M120.8,91.6L120.8,91.6
		c-1.8,0.5-2.2,0.5-3.2,0.1c-1.2-0.4-2-1.2-2-1.9c0-0.5,0-0.5,1.4,0.2c1.6,0.8,3.7,1.3,4.7,1.1C122.7,90.8,122,91.3,120.8,91.6z
		 M119.2,88.3c-0.4-0.6-1.2-2.6-1.4-3.8l-0.2-1l0.7,0.2c0.4,0.1,1.2,0.4,1.9,0.7c1.2,0.5,1.2,0.6,1.6,1.9c0.2,0.7,0.7,1.8,1.2,2.4
		c0.8,1,0.8,1.1,0.3,1.2c-0.3,0.1-0.6,0.1-0.8,0.1C122.1,89.9,119.5,88.7,119.2,88.3z M118,79.8c0.3-0.2,2.3,0.2,2.5,0.5
		c0.3,0.4,1,2.5,1,3.1h0c0,0.5-0.2,0.5-0.8,0.2c-0.3-0.1-0.9-0.4-1.5-0.5l-1.1-0.3l-0.1-1.4C117.9,80.5,117.9,79.9,118,79.8z
		 M124.1,92.3c0,0.3,1.4,0.8,2.1,0.8c0.2,0,0.3,0.2,0.2,0.5c0,0.4,0.1,0.6,1,0.8c0.9,0.3,3.6,1.9,3.6,2.2c0,0.2-0.8,0.1-2.4-0.3
		c-1.5-0.3-1.6-0.4-3.2-2.1c-0.9-1-1.9-1.8-2.2-1.9c-0.5-0.2-0.7-0.4-0.4-0.7C123.1,91.3,124.1,91.9,124.1,92.3z M123.8,88.6
		c-0.3-0.5-0.7-1.2-0.9-1.5c-0.4-0.7-0.7-2.4-0.5-2.4c0.2,0,1.4,1.3,2.1,2.2c0.3,0.4,0.5,1,0.5,1.5
		C125.1,89.6,124.5,89.7,123.8,88.6z M126.4,87c-0.2,0.6-0.6,0.7-0.6,0.2c0-0.2-0.7-1-1.6-1.9c-0.9-0.9-1.7-1.7-1.8-2
		c-0.1-0.2-0.2-0.7-0.3-1c-0.2-0.6-0.2-0.6,0.8,0.1c0.5,0.4,1.5,1.1,2.3,1.5c1.3,0.7,1.4,0.8,1.4,1.6
		C126.5,86.1,126.4,86.7,126.4,87L126.4,87z M129.2,86.4c-0.1,0.4-0.2,0.7-0.3,0.7c-0.1,0-0.2-0.3-0.2-0.7c0-0.4,0.1-0.7,0.3-0.7
		C129.2,85.7,129.2,85.9,129.2,86.4z M129.7,91.8c-0.7-1.7-0.7-1.9,0.1-0.9c0.4,0.5,1.2,1.3,1.8,1.6c0.7,0.4,1.1,0.8,1.1,1.1
		c0,0.3,0.2,0.9,0.3,1.5c0.2,0.5,0.3,1,0.3,1C133.2,96.2,130,92.4,129.7,91.8z M131.1,90.6c0.2,0.5,0.3,0.9,0.3,1
		c-0.2,0.2-1.6-1.9-1.7-2.4c-0.2-0.8,0-3.1,0.3-3.1c0.4-0.1,0.9,1.6,0.8,2.7C130.8,89.2,130.9,90.1,131.1,90.6z M131.2,86.9
		c-0.1,0.2-0.1,0-0.1-0.3c0-0.3,0.1-0.5,0.1-0.3v0C131.3,86.5,131.3,86.8,131.2,86.9z M132,90.7c0.3,0.6,0.4,1.1,0.4,1.2
		c-0.1,0.1-0.4-0.6-0.7-1.6C131.6,89.9,131.7,90.1,132,90.7z M152.7,74c-1.5-0.2-1.9-0.5-0.7-0.5c1.1,0,2.3,0.5,3,1.3
		c0.3,0.3,0.5,0.7,0.5,0.9c0,0.1-0.4-0.1-0.8-0.6C154.1,74.4,153.8,74.2,152.7,74z M162.8,76c-0.3,2.6-3.7,8.8-6,11.1
		c-2,2-2,1.2-0.1-1.8c0.6-1,1.1-1.8,1-1.8c-0.3,0-2.1,2.1-3.1,3.7c-1.1,1.7-1.3,1.4-0.3-0.5c0.4-0.7,0.7-1.4,0.7-1.4
		c-0.2-0.2-1.5,1.4-2.1,2.5c-1.2,2.3-1.6,0.9-0.4-1.5c0.5-0.9,0.8-1.7,0.8-1.7c-0.2-0.2-1.3,1.1-2,2.4c-1,1.8-1.9,2.3-1.9,1.1
		c0-0.7,1-2.5,3.6-6.4c1.4-2,2.9-4.5,3.4-5.5c0.9-1.9,1.4-3.8,0.9-3.8c-0.1,0-0.3,0.2-0.3,0.4c0,0.2-0.2,0.8-0.5,1.3l-0.5,0.9
		l-1.3-1.3c-0.7-0.7-1.6-1.3-1.9-1.4c-0.3-0.1-0.6-0.2-0.6-0.2c0,0,0.3-0.6,0.6-1.2c0.3-0.6,0.6-1.2,0.5-1.3c-0.1-0.1-0.1,0-0.1,0.1
		c0,0.3-1.8,2.3-2.7,2.9l-0.7,0.5l0.3-1c0.2-0.5,0.3-1,0.2-1c-0.1,0-0.4,0.7-0.9,1.5c-1.5,2.8-8.8,9.5-10.4,9.5
		c-0.7,0-0.6-0.4,0.1-0.6c0.8-0.2,3.2-2,5.2-4c2-1.9,4.6-5.6,5.4-7.8c0.3-0.9,0.1-0.6-0.6,0.7c-0.7,1.4-2.6,3.7-4.3,5.2
		c-1.9,1.8-5.7,4.4-5.8,3.9c0-0.2,0.2-1.7,0.5-3.4c0.5-2.3,0.6-3.9,0.6-6c0-4-0.4-4.3-0.6-0.5c-0.1,2.3-0.4,3.9-1,6.2
		c-0.4,1.7-0.9,4.1-1.1,5.3c-0.5,3.5,0.3,5.7,2.6,7.1c1.2,0.7,1.3,1,0.5,1c-0.5,0-0.5,0,0.1,0.6c0.4,0.3,1,0.6,1.5,0.7
		c0.5,0.1,0.8,0.2,0.7,0.4c-0.1,0.2,0.2,0.3,2.1,0.7c0.8,0.2,1.3,0.3,1.2,0.4c-0.1,0-0.9,0.2-1.6,0.3c-0.8,0.1-1.4,0.4-1.4,0.5
		c0,0.1,0.7,0.2,1.5,0.2c0.8,0,2,0.1,2.6,0.2l1.1,0.2l-1.1,0.2c-0.6,0.1-1.1,0.3-1,0.4c0.1,0.1,0.9,0.3,2,0.3
		c2.2,0.2,3.9,0.6,3.9,0.9c0,0.1-0.4,0.2-0.8,0.2c-0.5,0-0.8,0.1-0.7,0.2c0.1,0.1,0.4,0.2,0.8,0.2c0.4,0,0.8,0.2,1.1,0.4
		c0.3,0.2,0.9,0.3,1.4,0.3h1l-0.5,0.5c-0.3,0.3-0.9,0.6-1.4,0.7l0,0c-3.7,0.8-9.5,0.1-13.1-1.5c-2.6-1.1-5.5-3.7-6.6-5.8
		c-0.7-1.5-0.8-3.9-0.2-6.2c0.8-2.8,1.9-5.5,3.1-7.2c0.6-0.8,1-1.5,1-1.6c0,0-0.5,0.2-1,0.5c-1,0.6-2.5,3-3.3,5.1
		c-0.3,0.7-0.6,1.4-0.7,1.6c-0.6,0.8-3.6,0-7-1.7c-2.3-1.2-4.9-3.7-6-5.7c-0.4-0.7-0.7-1.3-0.8-1.3c0,0,0.4,1,0.9,2.1
		c1.1,2.2,3.3,4.7,5.3,6c0.6,0.4,1.1,0.8,1.1,0.9c-0.1,0.1-0.9-0.4-1.9-1.1c-1.8-1.2-3.6-3-4.4-4.3c-0.3-0.4-0.5-0.8-0.6-0.8
		c-0.2,0-0.7,0.8-0.7,1.1c0,0.1,0.1-0.1,0.3-0.4c0.3-0.6,0.3-0.6,0.4-0.1c0.1,0.3,0,0.6-0.4,0.9c-0.3,0.2-0.6,0.4-0.7,0.4
		c-0.1,0,0.1-0.6,0.3-1.4c0.4-1.4,0.4-1.4-0.3-2.8c-1-2.2-1.2-3.3-1.2-6.5c0-2-0.1-2.9-0.3-2.8c-0.1,0.1-0.2,1.8-0.2,4.1
		c0,3.3,0.1,4,0.5,4.9c0.3,0.7,0.5,1.6,0.5,2.6c0,1.4-0.1,1.8-1.7,5c-2.3,4.6-3.6,5.9-6.7,6.3c-2,0.3-4.1-0.9-4.6-2.5
		c-0.2-0.5-0.1-0.5,0.5-0.3c0.5,0.2,1,0.2,2.1,0c2.6-0.5,5-2.5,6.3-5.4c0.8-1.6,1.8-5.8,2.1-8.2c0.2-2,0.7-5.5,1-6.1
		c1.6-4.5,3.7-9,6.9-14c1.1-1.8,2.7-4.6,3.5-6.2c1.7-3.5,4.3-7.1,5.8-8.1c1.7-1.2,2.6-1.3,6.6-1.2c4.4,0.1,6.6,0.7,7.2,1.7
		c0.2,0.4,0.6,0.8,0.9,0.8c0.5,0.1,0.6,0.4,0.2,1c-0.4,0.7-0.9,0.6-1-0.3l-0.1-0.8l0,0.9c0,0.5-0.2,1-0.3,1
		c-0.2,0.1-0.2-0.1-0.1-0.6c0.1-0.5,0.1-0.7-0.1-0.7c-0.3,0-0.4,0.5-0.3,1.2c0,0.2-0.2,0.5-0.4,0.7c-0.6,0.3-0.6,0.3-0.1-0.9
		c0.2-0.5,0.3-0.8,0.1-0.7c-0.3,0.3-1.7,3.7-1.6,3.9c0.1,0.1,0.2-0.1,0.2-0.3c0.2-0.5,1.2-1.2,2.1-1.4c0.3-0.1,0.8-0.2,1.1-0.3
		c0.7-0.2,0.7,0.1,0.1,0.9l-0.5,0.6l0.1-0.6c0.1-0.5,0.1-0.5-0.4,0.2c-0.5,0.8-0.9,1.1-1.4,1.2c-0.2,0-0.5,0.2-0.7,0.5
		c-0.4,0.4-0.4,0.4,0,0.1c0.2-0.2,0.4-0.3,0.4-0.2c0,0.1-0.6,0.5-1.3,0.9c-0.7,0.4-1.5,1-1.7,1.3c-0.4,0.4-0.8,0.6-0.8,0.5l-0.4,0.5
		c-0.3,0.3-0.5,0.5-0.6,0.4c-0.1-0.1-0.3,0-0.4,0.1c-0.5,0.4-0.4,0.1,0.9-2.1c1.3-2.2,3.1-4.7,3.2-4.5c0.1,0.1-0.4,0.8-0.9,1.7
		c-0.5,0.9-1,1.6-0.9,1.7c0.1,0.1,0.6-0.6,1.1-1.5c0.9-1.4,1-1.7,0.8-2.1c-0.2-0.4-0.2-0.5,0.1-0.6c0.4-0.1,1.1-1.3,1.1-1.7
		c0-0.1-0.2,0.1-0.4,0.5c-0.2,0.4-0.6,0.9-0.8,1c-0.2,0.2-0.7,0.8-0.9,1.4c-0.5,1.1-1.2,1.8-1.2,1.3c0-0.2-0.2-0.2-0.5,0.1l-0.4,0.4
		c0,0-0.1,0.1-0.2,0.3l0,0c-0.3,0.4-0.5,0.5-0.5,0.3c0,0,0.2-0.2,0.4-0.4c0.1-0.1,0.2-0.2,0.3-0.2l0.4-0.4c0.2-0.3,0.6-0.5,0.7-0.4
		c0.1,0.1,0.2,0,0.1-0.2c-0.1-0.2-0.1-0.3,0.1-0.1c0.2,0.1,0.3,0,0.2-0.1c0-0.2,0.1-0.3,0.2-0.2c0.2,0,0.2,0,0.2-0.2
		c-0.1-0.1,0-0.4,0.1-0.6c0.2-0.2,0.2-0.3,0.1-0.3s0.1-0.3,0.4-0.7c0.3-0.4,0.1-0.2-0.5,0.4c-0.6,0.6-1.1,1.1-1.1,1.2
		c0,0.1-0.4,0.7-1,1.5c-0.6,0.7-1.3,1.6-1.7,2.1c-0.3,0.4-0.9,1.2-1.4,1.7c-2.2,2.4-1.4,1.9,1.1-0.8c1.6-1.7,3-3,3-2.9
		c0.1,0.1-0.5,1.2-1.3,2.4c-0.8,1.3-1.4,2.5-1.4,2.7c0,0.2-0.2,0.6-0.4,1c-0.5,0.8-1.4,2.9-1.4,3.6c0,0.3-0.1,0.2-0.2-0.3
		c-0.1-0.7-0.2-0.7-0.2-0.2c0,0.3-0.1,0.8-0.2,1.1c-0.1,0.3,0,0.5,0.2,0.5c0.2,0,0.5-0.4,0.7-1.1c0.2-0.6,0.3-0.8,0.2-0.5
		c-0.1,0.3-0.2,1.7-0.3,3.1c-0.1,2.8,0.2,5.6,0.9,7l0.5,1l-0.1-1.1c-0.1-0.6-0.1-1.7-0.2-2.4l-0.1-1.3l1.7-0.2
		c7.8-0.7,9.3-0.8,11.1-0.5c2,0.4,2.8,0.8,3.9,2c1.5,1.7,6.4,9.9,7.7,13C162.9,74.5,163,75,162.8,76z M141.4,41.1
		C141.8,40.8,141.8,40.8,141.4,41.1L141.4,41.1c-0.1,0.3-0.3,0.5-0.3,0.5C140.9,41.6,141,41.4,141.4,41.1z M154.7,57.6 M165.9,47
		c-0.3,0.2-0.4,0.4-0.3,0.4c0.1,0-0.1,0.4-0.4,0.9c-0.3,0.5-0.6,1-0.6,1.1c0,0.1-0.6,0.7-1.3,1.3l0,0c-2.4,2-2.5,2-2.3,1.5
		c0.1-0.2,1.2-1.4,2.4-2.6c1.2-1.2,2.2-2.2,2.1-2.3c-0.1-0.1-0.9,0.7-2,1.6c-1.1,1.1-1.9,1.6-1.9,1.4c-0.1-0.3,4.6-4.9,5-5
		C166.9,45.4,166.4,46.7,165.9,47z M166.5,45.2c-0.1,0-0.9,0.6-1.7,1.3c-2.7,2.3-2.8,2.4-2.8,2c0-0.2,0.4-0.6,0.9-0.9
		c1-0.6,4-3.4,3.4-3.1c-0.2,0.1-1.1,0.8-2.1,1.6c-1.8,1.4-2.1,1.5-1.8,0.7c0.1-0.3,4.7-4.2,4.8-4C167.3,42.8,166.6,45.2,166.5,45.2z
		 M166,42.9L166,42.9c-0.7,0.5-1.6,1.2-2,1.5c-1.3,1-0.8,0.2,0.7-1.2c1.1-1,1.5-1.5,1.9-2.6c0.2-0.7,0.5-1.1,0.5-0.8
		c0,0.3,0.1,0.9,0.2,1.3C167.3,42,167.2,42.1,166,42.9z M184.5,49.2c0,0,1.7-0.6,1.2-1.1c-3-2.9-3.7-4.8-5.1-6.3
		c-1.1-1.2-1.8-1.6-3.7-2.5c-1.8-0.8-2.5-1.3-2.8-1.9c-1-1.7-3.5-3.4-5.1-3.4c-1.5,0-2.8,1.9-3.5,5.3c-0.4,1.7-0.4,1.8-1.9,3.1
		c-1.7,1.5-2.5,3-3.1,6c-0.6,2.8-2.6,5.1-5.6,6.7l0,0c-0.6,0.3-1.2,0.6-1.4,0.6c-0.1,0-0.4-0.7-0.7-1.5c-0.6-2-0.6-7,0-9.2
		c2-7.6,7.1-13,13.7-14.7c2.5-0.7,6.7-0.5,9.4,0.3c7.9,2.4,13.3,8.6,13.3,15.5l0,2.1l-1.6-0.1c-1.4-0.1-1.6,0-2.3,0.6
		C184.9,49,184.5,49.3,184.5,49.2z M187.3,50.4c-0.5-0.2-1.2-0.5-1.4-0.5c-0.5,0-0.5-0.3,0-0.7c0.3-0.2,0.8-0.2,1.9-0.1
		c1.2,0.1,1.7,0.1,2.1-0.2c0.5-0.3,0.6-0.3,1.1,0c0.7,0.5,0.6,1.4,0,1.9l0,0C190.2,51.3,189.1,51.2,187.3,50.4z M193.4,52.4
		c-1.9-0.8-2-1-1.6-1.6c0.5-0.8,0.4-1.5-0.3-2.2c-0.6-0.6-0.6-0.7-0.3-1c0.3-0.3,0.4-0.3,0.6,0.2c0.1,0.3,0.5,0.6,0.8,0.6
		c0.6,0.1,1.5-0.5,1.5-1.1c0-0.4-0.7-0.8-1.5-0.8l-0.6,0l0.6-0.5c0.3-0.3,1.1-0.6,1.7-0.7c2-0.5,4.4,0.1,10,2.4
		c3.8,1.5,7.7,1.5,11.5-0.1c2.4-1,5.6-3.1,6.9-4.5c1.3-1.4,2.4-3.7,2.4-5c0-1.1,0.1-1.1,2.2,0.4c3.7,2.5,8.4,7.4,8.9,9.4
		c0.2,0.6,0.2,1.2,0.2,1.3c-0.1,0.1-0.6-0.4-1.1-1c-0.5-0.6-1.1-1.1-1.4-1.1c-0.3,0-0.3,0.1,0.1,0.5c1.1,1.3,1.9,3.5,1.2,3.5
		c-0.2,0-0.7-0.3-1.1-0.7c-0.5-0.4-0.9-0.7-0.9-0.6c0,0,0.1,0.4,0.4,0.9c0.3,0.4,0.5,1,0.5,1.3c0,0.8-0.9,0.7-2.8-0.3l-1.6-0.9
		l0.8,0.9c0.9,1,1.6,2.3,1.3,2.3c-0.1,0-1-0.4-1.9-0.8c-1.7-0.9-3-1.3-2.6-0.9c0.1,0.1,0.8,0.6,1.5,1.1c0.7,0.5,1.4,1.1,1.5,1.4
		c0.2,0.4,0.2,0.5-0.4,0.4c-0.4,0-1.6-0.4-2.7-0.9c-1.9-0.8-4.2-1.4-4.4-1.2c-0.1,0.1,1,0.7,2.3,1.5s3,1.8,3.8,2.3
		c1.8,1.2,3.5,2,5.9,2.9c2.9,1,8,3.2,9.6,4.1c2.3,1.3,4.3,2.8,4.4,3.4c0.2,0.9-0.1,1.1-0.8,0.6c-1.5-1.2-5.8-2.3-10.1-2.7
		c-1.5-0.1-1.7-0.2,3.1,1c2.4,0.6,5.9,1.8,6.3,2.2c0.3,0.3-1.2-0.1-2.8-0.8c-1.5-0.6-5.7-1.5-8.4-1.7c-1.8-0.1-1.6-0.1,3.6,1.2
		c3,0.7,4,1,4.9,1.6c0.6,0.4,1.2,0.9,1.2,1l0,0c0.2,0.5-0.1,0.4-5.1-1.1c-3.7-1.1-7.4-2-8.2-2c-0.3,0-0.7-0.2-0.9-0.4
		c-0.3-0.3-0.4-0.3-0.6-0.1c-0.1,0.2-0.4,0.2-0.8,0.1c-0.8-0.2-12.6-1.1-14.5-1.1c-1.9,0-7.3-1-9-1.6c-2.4-0.9-4.5-2.4-6.4-4.5
		C198,55.8,194.9,53.1,193.4,52.4z M193.5,47.4c-0.2,0.3-0.8,0.3-0.9,0c-0.2-0.3,0.5-0.6,0.8-0.4C193.5,47.1,193.6,47.2,193.5,47.4
		L193.5,47.4z M202.5,77.7c0-0.6-0.1-1.2-0.3-1.4c-0.2-0.2-0.3-0.1-0.3,0.5c0,0.8-0.7,2.6-1.3,3.1c-0.2,0.2-0.3-0.1-0.2-1.2
		c0.1-1.1,0-1.4-0.2-1.1c-0.1,0.2-0.2,0.6-0.2,0.9c0,0.7-0.6,2.2-0.9,2.2c-0.1,0-0.2-0.5-0.2-1.1c0-0.6-0.2-1.5-0.4-1.8l-0.4-0.7
		l0.1,1c0.1,0.5,0.2,1.1,0.2,1.3c0.1,0.4-0.9,2.4-1.3,2.6c-0.2,0.1-0.2-0.1-0.2-0.4c0.2-0.9-0.3-0.5-0.7,0.5
		c-0.5,1.1-0.9,1.2-0.9,0.3c0-0.4-0.2-1.1-0.4-1.6c-0.3-0.9-0.3-0.9-0.2,1.2c0.1,2.3-0.2,3.2-0.4,1.4c-0.3-1.9-0.6-1.9-0.5,0
		c0.2,1.8-0.1,4.6-0.4,4.2c-0.1-0.1-0.3-0.7-0.5-1.4c-0.2-0.7-0.4-1.3-0.6-1.4c-0.2-0.2-0.2-0.1-0.1,0.2c0.1,0.3,0.2,1.7,0.3,3.1
		c0.1,2.9-0.1,3.1-0.6,0.5c-0.4-2.1-0.8-3.1-0.5-1.3c0.3,2,0.2,4-0.1,5.3c-0.3,1.2-0.6,1.5-0.6,0.6c0-2-0.1-3.3-0.2-3.2
		c-0.1,0.1-0.2,1.1-0.4,2.2c-0.2,2.4-0.6,3.8-1.2,4.3c-0.4,0.3-0.4,0.3-0.1-1.1c0.4-1.7,0.4-5.3,0.1-4.7c-0.1,0.2-0.3,1.2-0.5,2.3
		c-0.2,1-0.5,2.4-0.7,3.1c-0.5,1.2-1.5,2.7-1.7,2.5c-0.1-0.1,0.1-0.8,0.3-1.5c0.6-1.9,0.8-3.4,0.5-3.1c-0.1,0.1-0.6,1.1-1,2.1
		c-0.4,1-1.1,2.2-1.4,2.6l0,0c-0.8,0.9-1.2,0.9-1.2,0.2c0-0.6,0.6-2.8,0.9-3.6c0.9-2.1,2.5-9.7,3-14c0.5-4.7,1.3-9.8,1.7-11.3
		c0.4-1.5,1.2-2.3,2.4-2.5c3.6-0.6,6.3-1.8,8.4-3.9l1.6-1.6l0.9,0.8c2.4,2,6,3.2,10.6,3.5c3.5,0.2,3.9,0.3,3.5,0.8
		c-0.2,0.2-0.6,0.3-1,0.3c-0.5-0.1-0.7,0-0.7,0.3c0,0.2-0.2,0.6-0.3,1l-0.3,0.6l0-0.8c0-1.1-0.5-1.9-0.5-0.8c0,0.9-0.4,2.2-0.7,2.2
		c-0.1,0-0.1-0.2-0.1-0.3c0.1-0.2,0-0.5-0.1-0.7c-0.2-0.3-0.3-0.1-0.8,1.1l-0.5,1.5l-0.4-0.7l-0.4-0.7l-0.1,1.1
		c-0.1,1.1-0.5,2.1-0.8,2.1c-0.1,0-0.1-0.2-0.1-0.5c0.1-0.3,0-0.8-0.1-1.1l-0.2-0.6l-0.2,0.7c-0.1,0.4-0.3,1.1-0.4,1.7l-0.3,1
		l-0.4-1.2l-0.4-1.2l-0.1,1.4c-0.1,1.3-0.5,2.5-0.9,2.5c-0.1,0-0.1-0.2,0-0.5c0.2-0.6-0.1-2.4-0.4-2.4c-0.1,0-0.2,0.5-0.2,1.1
		c0,0.6-0.2,1.5-0.3,1.8l-0.3,0.7l-0.2-1.3c-0.2-1.7-0.6-1.6-0.6,0.3c0,1.3-0.1,1.7-0.5,2.2l-0.5,0.6l0.1-1.1c0-0.6,0-1.3-0.1-1.5
		c-0.2-0.3-0.3,0-0.5,1.2C202.8,78.6,202.5,79.2,202.5,77.7z M205.9,81.9l-0.2,0.8l-0.3-0.6c-0.2-0.3-0.8-1-1.4-1.5
		c-1.2-1-1.3-1.4-0.4-2c0.6-0.4,0.6-0.4,1.3,0.4c0.4,0.4,0.8,1.1,1,1.4h0C206,80.9,206,81.4,205.9,81.9z M206.8,78.2
		c-0.2,0.7-0.5,1.2-0.6,1.3c-0.2,0-0.7-1.8-0.6-2.4c0.1-0.4,1.2-1.3,1.7-1.4C207.6,75.7,207.4,76.7,206.8,78.2z M208.1,77.6
		c1-2,3.6-5,3.8-4.2c0.1,0.4-0.5,1.3-2.6,3.6c-0.5,0.6-1.2,1.6-1.6,2.3C206.7,81,207,79.8,208.1,77.6z M207.5,82.3
		c0.2-1.7,1-3.5,2-4.4l0.8-0.8l-0.2,0.9c-0.1,0.5-0.3,1.3-0.3,1.8c-0.1,0.5-0.4,1.2-0.8,1.6c-0.4,0.4-0.8,1.1-1,1.5
		C207.5,83.9,207.3,83.7,207.5,82.3z M208.7,87.2c-0.2,0.4-0.3,0.4-0.4-0.4c-0.3-1.4,0-2.9,0.7-4c1-1.6,4.9-3.8,4.3-2.5
		c-0.1,0.2-0.4,1.1-0.7,2c-0.4,1.3-0.8,1.8-2,3C209.7,86.1,208.9,87,208.7,87.2z M209.6,88.1c0-0.7,0.2-1.1,1.3-2.2l1.3-1.3l-0.1,1
		c-0.1,0.5-0.5,1.6-0.9,2.3h0C210.2,89.6,209.6,89.7,209.6,88.1z M211.3,92.2c-0.4,0.2-1.4,1.1-2.2,2c-1.4,1.5-1.6,1.7-3,1.9l0,0
		c-0.8,0.2-1.7,0.3-2,0.4c-0.5,0.1-0.5,0.1-0.3-0.2c0.5-0.6,2.5-1.8,3.5-2.1c0.8-0.2,1-0.4,0.9-0.7c-0.1-0.3,0-0.5,0.7-0.6
		c0.5-0.1,1.2-0.5,1.6-0.8c0.7-0.7,1-0.8,1.3-0.5C211.9,91.7,211.7,92,211.3,92.2z M211.2,89.8c-0.5-0.1-0.5-0.4,0.1-0.9
		c0.6-0.5,1.6-2.6,1.6-3.2c0-0.2,0.3-0.6,0.6-0.9c0.7-0.5,3.1-1.4,3.3-1.2c0.2,0.2-0.3,2-0.8,3.6c-0.5,1.2-0.5,1.3-2.2,2h0
		C212.2,90,212,90,211.2,89.8z M213.5,91.4l-1.2-0.4l1.8-0.1c1.3-0.1,2.2-0.3,3.4-0.9l1.6-0.8v0.5c0,0.7-0.8,1.4-1.9,1.8l0,0
		C216.2,92,215,91.9,213.5,91.4z M215.5,93.2c-0.4,0.2-0.8,0.4-0.9,0.5c-0.1,0.1-0.1-0.1,0.1-0.3c0.2-0.3,0.6-0.5,0.9-0.5l0.6,0
		L215.5,93.2L215.5,93.2z M214.2,96.5L214.2,96.5c-0.6,0.1-1.5,0.2-2,0.2l-0.8,0.1l0.7-0.6c0.4-0.3,0.8-0.6,0.8-0.6
		c0.1,0,0.3-0.3,0.4-0.6c0.2-0.3,0.8-0.8,1.4-1.1c1.2-0.5,3.9-1.1,4.3-1c0.2,0.1,0,0.5-0.5,1.1C217.8,95.4,216,96.3,214.2,96.5z
		 M219,96.4c0.9-1.3,3.1-2.3,4.3-2c1.1,0.3,0.5,0.8-1.1,0.9c-0.3,0-1.2,0.4-1.9,0.8v0C218.8,97,218.5,97.1,219,96.4z M227.7,92.2
		c0.6,0.2,0.7,0.3,0.3,0.3c-0.3,0-0.6,0-0.6-0.1c-0.1-0.1-0.7-0.2-1.4-0.3l-1.3-0.2l1.1,0C226.4,91.9,227.2,92,227.7,92.2
		L227.7,92.2z M226.5,93c0.5,0.1,0.4,0.2-0.6,0.6l0,0c-1.4,0.5-1.2,0.5-2,0.1c-0.3-0.2-0.9-0.4-1.2-0.4c-0.6,0-0.5,0,0.1-0.2
		C223.7,92.8,225.7,92.8,226.5,93z M225.1,97.9c-0.7-0.5-1.7-1.1-2.3-1.3l-1-0.5l1.5,0.1c1.5,0.1,1.6,0.1,2.4,1.1
		c0.5,0.6,0.9,1.1,0.9,1.2v0C226.7,98.9,226.4,98.8,225.1,97.9z M224.8,100.2L224.8,100.2c-0.4,0-1.1,0.1-1.6,0.1
		c-0.7,0.1-1,0-1.8-0.7c-0.5-0.4-1.2-0.9-1.6-1.1c-0.8-0.4-0.8-0.6,0-1.1c1-0.6,2.1-0.5,3.5,0.2C225.6,98.9,226.3,100.2,224.8,100.2
		z M225.8,103.1L225.8,103.1c-0.3,0.2-0.6,0.4-0.8,0.4c-0.1,0-1.1-0.1-2.1-0.2c-2-0.2-2.6-0.5-3.3-1.9c-0.6-1.1-0.8-2.4-0.5-2.4
		c0.1,0,0.8,0.5,1.5,1.1c1.4,1.2,2.2,1.6,2.9,1.4c0.3-0.1,0.9,0.1,1.7,0.5l1.2,0.7L225.8,103.1z M230.9,95.2c-0.1,0.2,0,0.5,0.2,0.7
		c0.2,0.2,0.4,0.4,0.4,0.5c0,0.1,0.2,0.5,0.5,0.9c0.3,0.3,0.4,0.7,0.2,0.7c-0.2,0.1-0.1,0.4,0.1,1c0.2,0.5,0.3,1.1,0.3,1.3
		c-0.1,0.6-0.6,1.2-1,1.2c-0.2,0-0.3,0.1-0.2,0.3c0.1,0.2,0.3,0.3,0.5,0.2c0.6-0.1,0.5,0.3-0.2,0.9c-0.3,0.3-0.6,0.7-0.5,0.8l0,0
		c0.1,0.4-1.3,0.8-2,0.7c-1.2-0.3-2.2-1-2.1-1.3c0.1-0.4-0.3-0.9-1.1-1.3l-0.5-0.3l0.5-0.2c0.3-0.1,0.5-0.4,0.5-0.7
		c0-0.4,0.2-0.6,0.7-0.8c0.4-0.2,0.7-0.4,0.7-0.7c0-0.5-1.7-2.6-2.3-3c-1.2-0.6-0.4-1.4,1.5-1.6c0.9-0.1,1.4-0.3,1.6-0.6
		c0.1-0.2,0.4-0.4,0.6-0.4C229.9,93.5,231,94.8,230.9,95.2z M230.7,89.5c1.6,0.5,3.1,1,3.4,1c0.6,0,1.2,0.4,1.2,0.8
		c0,0.1-1.3,0.2-3.5,0c-5.3-0.3-7.9-0.2-9.2,0.3v0c-1.2,0.5-3.3,0.9-2.9,0.6c0.1-0.1,0.9-0.5,1.8-0.7c0.9-0.3,2.2-0.9,2.9-1.4
		c0.7-0.5,1.8-1.1,2.4-1.2C227.9,88.5,228,88.5,230.7,89.5z M237.8,85.5l-0.7,0.6l0.5,0.3c0.5,0.3,0.5,0.3,0.1,0.8
		c-0.3,0.4-0.6,0.5-1,0.4c-0.4-0.1-0.7,0-0.9,0.3c-0.3,0.4-0.4,0.4-2.5-0.4c-1.5-0.5-2.6-0.8-3.4-0.8c-1.4,0-3.6,0.9-5.7,2.2l0,0
		c-0.8,0.5-1.6,0.9-1.7,0.9c-0.4,0,1.5-2,2.2-2.3c2.4-1,3.9-1.3,6.8-1.3c1.6,0,3.1-0.1,3.3-0.2c0.3-0.1,0.9-0.6,1.3-1.1
		c0.7-0.7,0.9-0.8,1-0.4c0.1,0.2,0.4,0.4,0.6,0.4C238.4,85,238.4,85,237.8,85.5z M238.8,83.8c0.4-0.5,0.3-0.9-0.3-0.9
		c-0.3,0-0.3-0.1,0-0.8c0.6-1.1,1.2-1.8,2.7-2.7c1.7-1,2.4-1.2,4.1-0.8c2.2,0.4,1.4,1-2.2,1.5c-1.1,0.2-2.3,0.5-2.7,0.6
		c-0.7,0.3-0.9,0.8-0.2,0.6c0.7-0.2,4.1-0.4,4.1-0.3c0,0.3-2.1,1.1-3.2,1.3c-1.5,0.2-1.7,0.4-0.3,0.7c2.3,0.4,3.5,0.6,3.9,1
		c0.4,0.3,0.2,0.3-1.7,0.2c-1.2-0.1-2.5-0.2-3-0.4c-0.5-0.1-0.9-0.1-1,0c-0.6,0.6,4.1,1.8,6,1.6c1.1-0.1,1.5,0,2.4,0.4
		c1.9,1,1.8,0.9,0.5,1.9l0,0c-1.3,0.9-1.3,0.9-2.2,0.6c-0.3-0.1-0.9-0.2-1.4-0.2c-0.5,0-0.9-0.2-1.3-0.7c-1-1.2-1.7-1.5-3.2-1.4
		c-1.3,0.1-1.6,0-0.9-0.5c0.5-0.4,0.4-0.9-0.1-1.1C238.4,84.2,238.4,84.2,238.8,83.8z M238.8,87.4c0.2-0.2,0.4-0.5,0.4-0.7
		c0-0.6,2.3,0.4,3.1,1.3c0.3,0.4,1.1,1.1,1.8,1.7c0.7,0.5,1.2,1,1.1,1.1l0,0c-0.2,0.2-2.5,0.1-3.4,0c-0.3-0.1-1.2-0.8-2-1.5
		C238.5,87.9,238.4,87.7,238.8,87.4z M243.8,94.3c-0.4,0.1-0.8-0.2-1.9-1.3c-0.8-0.8-1.4-1.5-1.3-1.5c0.2-0.2,2,0.4,2.2,0.8
		c0.1,0.2,0.5,0.7,0.9,1.1h0C244.4,94.2,244.4,94.2,243.8,94.3z M247.2,92.8L247.2,92.8c-0.8,0.3-1.7,0.5-1.9,0.6
		c-0.2,0.1-0.6-0.1-1-0.5c-0.6-0.6-0.6-0.7-0.3-0.8c0.2-0.1,0.7-0.2,1.1-0.2c0.4,0,0.8-0.2,1-0.4c0.3-0.3,0.5-0.3,1.4,0
		c0.6,0.2,1.1,0.5,1.1,0.6C248.7,92.2,248,92.5,247.2,92.8z M248.2,90.8c-1.5-0.6-2-0.8-2.6-1.3L245,89l0.7,0.2
		c0.8,0.2,3.7,1.6,3.7,1.8C249.4,91.2,249.1,91.2,248.2,90.8z M249.4,89.1c-0.7,0.4-0.9,0.4-1.4,0.2c-0.5-0.2-0.3-0.5,0.4-0.9
		c0.7-0.4,1.7-0.3,1.7,0.1C250.1,88.7,249.8,88.9,249.4,89.1L249.4,89.1z"/>
	<ellipse cx="151.3" cy="38.1" rx="0.5" ry="0.2"/>
	<path d="M144.8,43.4c0.1-0.1,0.2-0.3,0.2-0.4s-0.1-0.2-0.2-0.1c-0.1,0.1-0.2,0.3-0.2,0.4C144.6,43.5,144.7,43.5,144.8,43.4z"/>
	<path d="M228.4,65.2c0,0.1,0.3,0.2,0.6,0.2c0.3,0,0.6,0,0.6-0.1s-0.3-0.1-0.6-0.2C228.7,65.1,228.4,65.1,228.4,65.2z"/>
	<path d="M156.5,82.5c-0.9,1.7-1.1,2.2-0.7,1.9c1.1-1,2.2-2.7,3-4.8C160.3,75.6,160,76,156.5,82.5z"/>
	<path d="M161.7,75.2c-0.2,1.7-1,4.2-2,6.3c-0.4,0.8-0.8,1.7-0.9,2h0c-0.1,0.3-0.1,0.5,0,0.5c0.3,0,2.1-3.3,2.5-4.6
		c0.6-1.8,1.1-5.1,0.8-5.4C161.9,73.8,161.8,74.2,161.7,75.2z"/>
	<path d="M159.5,79.7c-0.4,0.8-0.4,0.8,0,0.5c0.7-0.6,1.5-2.6,1.5-3.7c0-0.9,0-0.9-0.6,0.7C160.2,78.1,159.7,79.3,159.5,79.7
		L159.5,79.7z"/>
	<path d="M156.4,81.5c0.2-0.3,0.3-0.6,0.3-0.7c0-0.1-0.2,0-0.4,0.2c-0.2,0.3-0.3,0.6-0.3,0.7C156,81.9,156.2,81.8,156.4,81.5z"/>
	<path d="M153.8,71.4c-0.7,0-0.5,0.6,0.3,0.9c0.4,0.2,0.9,0.5,1.2,0.9l0,0c0.7,0.7,0.8,0.6,0.4-0.3C155.3,72,154.5,71.4,153.8,71.4z
		"/>
	<path d="M145.4,73.5c-0.8,0.8-2.2,2.1-3.3,2.8c-1,0.7-1.8,1.4-1.8,1.5c0,0.5,1.2,0.2,2.1-0.5c0.9-0.6,4-4.4,4.3-5.1
		C146.8,72.1,146.2,72.7,145.4,73.5z"/>
	<path d="M238,43.1c-0.3-0.3-2-1-2-0.9c0,0.1,0.4,0.3,0.9,0.6v0C237.9,43.3,238.4,43.4,238,43.1z"/>
	<path d="M224.6,65L224.6,65c0.7,0,1.6,0.1,1.8,0.1c0.3,0,0.5,0,0.5-0.2c0-0.3-1.4-0.5-3-0.5C222.4,64.5,222.9,64.9,224.6,65z"/>
	<path d="M235.9,40.7c2.6,1.3,3,1.4,1.8,0.5c-1-0.8-2.9-1.8-3.9-2C232.6,38.8,233.4,39.5,235.9,40.7z"/>
	<path d="M142.7,74.8c-0.1-0.1-0.4,0.1-0.7,0.3v0c-0.3,0.3-0.5,0.5-0.3,0.5C142,75.7,142.8,75,142.7,74.8z"/>
	<path d="M227,57.1c2.6,1.6,7.6,4,10.6,5c2.7,0.9,4.6,1.3,3.7,0.7c-0.2-0.1-2.7-1.1-5.5-2.3c-2.8-1.1-6.2-2.6-7.6-3.2
		c-1.4-0.6-2.5-1.2-2.6-1.2C225.5,56.2,226.1,56.6,227,57.1z"/>
	<path d="M237.8,44.8L237.8,44.8c0.6,0.4,1,0.5,1,0.3c0.1-0.4-0.7-0.9-1.4-0.9C236.9,44.3,236.9,44.3,237.8,44.8z"/>
	<path d="M243.8,64.3L243.8,64.3c0.8,0.2,0.9,0.2,0.7-0.1c-0.3-0.3-1.7-0.6-1.4-0.3C243.2,64.1,243.5,64.3,243.8,64.3z"/>
	<path d="M235.3,62.1c0-0.2-1-0.7-4-1.9c-1-0.4-1.8-0.7-1.9-0.6c-0.2,0.2,3.2,2.1,4.3,2.4l0,0C234.9,62.4,235.3,62.4,235.3,62.1z"/>
	<path d="M234,63.6l2.9,0.4c1.6,0.2,3.5,0.6,4.3,0.8v0c1.8,0.4,2.1,0.5,1.3,0c-1.3-0.7-4.3-1.3-6.4-1.3L234,63.6z"/>
	<path d="M230.3,63.1L230.3,63.1c-0.2,0.1,0,0.1,0.3,0.1c0.3,0,0.5-0.1,0.3-0.1C230.7,63.1,230.4,63.1,230.3,63.1z"/>
	<path d="M154.9,71.1L154.9,71.1c0.8,0.5,1.1,0.5,0.6-0.1c-0.2-0.2-0.5-0.4-0.8-0.4C154.3,70.7,154.3,70.7,154.9,71.1z"/>
	<path d="M106.1,102.2c-0.6-0.4-0.7-0.8-0.2-0.8c0.5,0,0.5-0.7,0-0.9c-0.3-0.1-0.3-0.2-0.1-0.5c0.2-0.3,0.2-0.4,0-0.6
		s-0.1-0.4,0.2-0.8c0.7-0.7,0.3-0.7-0.6,0c-0.5,0.4-0.7,0.8-0.7,1.4c0,0.4-0.1,0.9-0.2,1.1c-0.2,0.3,0.3,0.8,1.1,1.2l0,0
		C106.4,102.7,106.7,102.6,106.1,102.2z"/>
	<polygon points="144.6,43.3 144.6,43.3 144.6,43.3 	"/>
	<path d="M128.3,78.8c0.1,0.1,0.2,0.2,0.4,0.2c0.3,0,0.3-0.2-0.1-0.3C128.3,78.6,128.2,78.6,128.3,78.8L128.3,78.8z"/>
	<path d="M140.4,46.8C140.4,46.8,140.4,46.8,140.4,46.8L140.4,46.8L140.4,46.8z"/>
	<path d="M140,43.3L140,43.3L140,43.3C140.1,43.3,140.1,43.3,140,43.3z"/>
	<path d="M140,46.8c-0.8,0.7-0.8,1-0.1,0.4l0.5-0.4c0,0,0-0.1,0.1-0.2C140.6,46.4,140.3,46.5,140,46.8z"/>
	<path d="M107.8,96.2c-0.2-0.1-0.5,0-0.8,0.2c-0.4,0.2-0.5,0.2-0.5-0.3c0-0.4-0.1-0.6-0.5-0.6c-0.4,0-0.4-0.1-0.2-0.5
		c0.4-0.7-0.1-0.6-0.8,0.2c-0.6,0.7-0.6,1.4-0.1,1.4c0.1,0,0.2,0.2,0.1,0.5c-0.1,0.3-0.1,0.6,0,0.7v0c0.1,0.1,0.2,0.2,0.3,0.2
		C105.6,98.1,108,96.3,107.8,96.2z"/>
	<path d="M136.8,88.3c-0.1,0,0.3,1,0.6,1.7c0.1,0.3,0.3,0.5,0.5,0.5c0.1,0-0.1-0.5-0.4-1.1C137.2,88.8,136.9,88.3,136.8,88.3z"/>
	<path d="M128.1,79.9L128.1,79.9c0.9,0.3,1.6,0.5,1.7,0.6c0,0,0-0.1-0.1-0.2c-0.1-0.1-0.9-0.5-1.7-0.9c-0.9-0.4-2-0.8-2.4-1.1
		c-0.4-0.3-0.9-0.4-0.9-0.4C124.4,78.1,126.6,79.3,128.1,79.9z"/>
	<path d="M135.8,61.2c-0.1-0.6-0.4-1.9-0.6-3l-0.3-1.9l-0.2,1.4c-0.1,0.8-0.1,2.1,0.1,3.2c0.6,4.4,0.6,7.6-0.2,9.6v0
		c-0.1,0.2,0,0.3,0.1,0.2c0.1-0.1,0.5-0.9,0.9-1.8c0.6-1.5,0.6-1.8,0.5-4.1C136.1,63.3,135.9,61.7,135.8,61.2z"/>
	<path d="M117.8,64.2c-0.3,1.6-0.5,7.2-0.2,7.5l0,0c0.1,0.1,0.2,0.1,0.2,0.1c0,0,0.2-2,0.3-4.3c0.2-3.2,0.3-4.6,0.7-5.8
		c0.3-0.8,0.5-1.6,0.4-1.6C119.1,59.9,118.1,62.7,117.8,64.2z"/>
	<path d="M134.8,84.4c0-2.2-0.3-2.1-0.7,0.3c-0.3,1.8,0,3.6,0.9,5.3c1.1,2.3,4.4,5.1,7.1,6.1v0c2.1,0.8,2.1,0.6,0-0.7
		c-2-1.2-4.5-3.5-5.5-5C135.4,88.9,134.8,86.7,134.8,84.4z"/>
	<path d="M137.7,44c0.8-0.4,1.4-0.8,1.4-0.8c0,0-0.8,0.2-1.6,0.5c-1.3,0.5-1.8,0.6-3.2,0.5c-1.5-0.1-1.6-0.1-1,0.2
		C134.5,44.9,136,44.8,137.7,44z"/>
	<path d="M130.5,81.6c-3.8-0.9-6.2-2.1-8.4-4.2c-0.9-0.8-1-0.9-0.7-0.4c1.2,1.7,3.8,3.7,6,4.7c1.1,0.5,2,0.7,2.9,0.7
		C131.7,82.3,131.9,81.9,130.5,81.6z"/>
	<path d="M137.1,40.1c-0.6,0-1,0.1-1,0.2v0c0.1,0.1,0.5,0.2,0.9,0.2c0.8,0,2.3-1,2.3-1.5c0-0.1-0.3,0.1-0.6,0.4
		C138.3,40,138,40.1,137.1,40.1z"/>
	<path d="M136,39.4c0.7,0.8,2.9,0.1,2.9-0.9c0-0.8-2.1-0.7-2.9,0.2C135.8,38.9,135.8,39.1,136,39.4L136,39.4z M138,38.5
		c0.2,0,0.1,0.2-0.2,0.4l0,0c-0.5,0.4-0.8,0.4-0.8,0.1C137,38.8,137.6,38.5,138,38.5z"/>
	<path d="M237.6,42.1c-0.2-0.4-2-1.2-2.3-1.1c-0.1,0,0.3,0.4,0.9,0.7C237.5,42.4,237.8,42.4,237.6,42.1z"/>
	<path d="M191.4,77.5c0.1,0.5,0.2,2.3,0.3,3.9h0c0.1,1.6,0.2,2.9,0.2,2.9c0.3,0,0.8-1.9,0.9-3.2c0-1.6-0.6-3.7-1.2-4.2
		C191.2,76.5,191.2,76.6,191.4,77.5z"/>
	<path d="M193.7,77.6c-0.2,1.1-0.3,2.2-0.3,2.3l0,0c0,0.9,0.8-0.6,1.2-2.1c0.2-0.8,0.2-1.1-0.2-1.6C194,75.6,194,75.6,193.7,77.6z"
		/>
	<path d="M192.2,70.2c-0.4,0.3-0.7,0.6-0.7,0.7h0c0,0.4,0.3,0.3,0.9-0.3C193.2,69.9,193.1,69.6,192.2,70.2z"/>
	<path d="M196.2,73.5c-0.1,0-0.2,0.4-0.2,0.9c0,0.5-0.2,1.5-0.4,2.2c-0.2,0.7-0.4,1.3-0.4,1.4l0,0c0,0,0.1,0.1,0.2,0.1
		c0.3,0,1.2-1.4,1.3-2.3C197,74.9,196.6,73.5,196.2,73.5z"/>
	<path d="M194.3,67.2c-0.2,0.1-0.4,0.3-0.4,0.5l0,0c0,0.3,0.1,0.3,0.5-0.1C194.9,67.2,194.9,67,194.3,67.2z"/>
	<path d="M191.7,72.3c0-0.5,0-0.5-0.4,0.1c-0.2,0.4-0.5,0.7-0.7,0.7c-0.4,0-0.7,0.5-0.3,0.7l0,0C191,74.2,191.7,73.4,191.7,72.3z"/>
	<path d="M189.6,75.7c-0.5,0.4-0.9,0.9-0.8,1c0.2,0.4,0.7,0.1,1.3-0.8C190.8,75,190.6,74.9,189.6,75.7z"/>
	<path d="M190,81.2c0.1,0.7,0.2,2.3,0.1,3.5h0c0,2,0,2.1,0.3,1.4c0.8-1.8,0.7-4.6-0.2-5.7C189.8,79.9,189.8,79.9,190,81.2z"/>
	<path d="M222.2,77.6c0.3,0,0.6-0.9,0.4-1.1c-0.2-0.2-0.3-0.1-0.5,0.6h0C222,77.4,222.1,77.6,222.2,77.6z"/>
	<polygon points="188.8,76.7 188.8,76.7 188.8,76.7 	"/>
	<path d="M217.4,73.8c-0.7,0-1.4,0.1-1.4,0.2c-0.1,0.1,0.2,0.2,0.6,0.2c0.8,0,0.8,0,0.3,0.5l0,0c-0.4,0.4-0.4,0.5,0,0.5
		c0.6,0,1.8-0.7,1.8-1.1C218.6,73.9,218.3,73.8,217.4,73.8z"/>
	<path d="M200,72.1c-0.1,0.7-0.4,1.6-0.6,2.2c-0.3,0.5-0.5,1.1-0.5,1.2h0c0,0.5,1-0.3,1.5-1.2c0.5-1,0.6-2.3,0.1-3
		C200.2,70.9,200.1,71,200,72.1z"/>
	<path d="M198.2,72.8c0,0.2-0.3,1.2-0.6,2.2c-0.3,1-0.6,1.8-0.6,1.9c0,0.1,0.2-0.1,0.5-0.3c0.8-0.7,1.4-2.2,1.4-3.1
		C198.8,72.5,198.2,71.9,198.2,72.8z"/>
	<path d="M219.4,78.1c-0.7,0.6-0.7,1-0.1,0.8c0.5-0.1,0.5-0.1,0.1,1c-0.2,0.6-0.3,1.2-0.3,1.2l0,0c0,0,0.2,0,0.3-0.2
		c0.4-0.3,1.1-2.2,1.1-2.9C220.6,77.4,220.1,77.5,219.4,78.1z"/>
	<path d="M223.1,77.9c-0.1,0.5-0.1,0.7,0.2,0.7c0.4,0,0.5,0.5,0.4,2.1h0c0,0.5,0.1,0.8,0.2,0.8c0.4,0,0.2-3.7-0.2-4.1
		C223.4,77,223.3,77,223.1,77.9z"/>
	<path d="M220.9,76.8c-0.1,0.2-0.1,0.5,0,0.6l0,0c0.3,0.4,0.8-0.5,0.8-1.4c0-0.4-0.1-0.8-0.3-0.8c-0.1,0-0.4-0.2-0.6-0.4
		c-0.3-0.3-0.4-0.4-0.7-0.1c-0.5,0.4-0.5,0.8,0,0.6c0.3-0.1,0.4,0,0.4,0.5c0,0.3,0.1,0.6,0.3,0.6C221,76.4,221,76.6,220.9,76.8z"/>
	<path d="M222.7,79.2c-0.2,0-0.5,0.1-0.6,0.3c-0.2,0.2-0.3,0.1-0.3-0.5c0-1-0.5-0.9-0.8,0.3c-0.3,1.2-0.1,1.7,0.7,1.4
		c0.6-0.2,0.6-0.2,0.6,0.8l0,0c0,1.3,0.4,0.7,0.6-1C223,79.5,222.9,79.2,222.7,79.2z"/>
	<path d="M207.6,58.8L207.6,58.8c1.7,0.4,1.7,0.2,0-0.6c-1.8-0.8-2.3-0.9-2.3-0.6C205.3,57.9,206.5,58.5,207.6,58.8z"/>
	<path d="M223.5,50.7L223.5,50.7c1.2,0.7,3.7,0.4,4.5-0.6c0.5-0.5,0.4-0.5-0.1-0.3c-1.4,0.4-3.7,0.4-4.5,0.1
		C221.9,49.1,222,49.8,223.5,50.7z"/>
	<path d="M225.4,49L225.4,49c1.2,0.5,4.4,0,4.4-0.7c0-0.1-1.2-0.2-2.7-0.2c-2.3,0-2.7,0.1-2.4,0.3C224.8,48.7,225.2,48.9,225.4,49z"
		/>
	<path d="M213.5,61.5c-1.2-0.2-0.4,0.4,1,0.8v0c1.3,0.4,3.8,0.4,4,0.1c0.2-0.3-0.4-0.4-2.5-0.6C215,61.7,213.9,61.5,213.5,61.5z"/>
	<path d="M220.5,62.2c-0.2-0.1-0.6-0.1-0.8,0c-0.2,0.1,0,0.1,0.4,0.1C220.5,62.3,220.7,62.2,220.5,62.2z"/>
	<path d="M188.7,84.2c-0.2,0-0.1,1.9,0.1,4l0,0c0.2,1.5,0.5,0.6,0.5-1.5C189.4,85.2,189.1,84.2,188.7,84.2z"/>
	<path d="M222.5,54.4c0,0.1,0.3,0.3,0.7,0.5l0,0c0.9,0.5,1,0.5,0.3-0.1C222.8,54.3,222.5,54.1,222.5,54.4z"/>
	<path d="M228.1,46.9c1,0.2,3.3,0,3.7-0.4c0.2-0.2,0.3-0.4,0.2-0.4c-0.2-0.2-4.8,0.2-4.7,0.4C227.3,46.6,227.7,46.8,228.1,46.9z"/>
	<path d="M231,44.8c0.8-0.2,0.6-0.6-0.4-0.6c-1.1,0-2,0.2-2,0.5l0,0C228.6,45,230.2,45,231,44.8z"/>
	<path d="M221.7,62.2c-0.1-0.1-0.3-0.1-0.5,0l0,0c-0.2,0.1-0.1,0.1,0.1,0.1C221.6,62.3,221.8,62.3,221.7,62.2z"/>
	<path d="M213.1,64c1.4,0.2,3.3,0.4,4.1,0.5l0,0c2.3,0.3,4.8,0.3,4.8,0c0-0.3-1.8-0.7-4.2-0.9c-3.2-0.3-8.8-1.3-10.1-1.8
		c-2.3-0.9-4.1-2.2-6.9-4.9c-1.5-1.5-3.1-2.8-3.6-3.1l-0.8-0.4l0.9,0.8c0.5,0.4,1.5,1.6,2.3,2.6C203.3,61.4,207.1,63.4,213.1,64z"/>
	<path d="M198.1,50.7c0.9,0,2-0.9,2-1.6c0-0.3-0.1-0.3-0.6,0.1c-0.3,0.3-1,0.6-1.6,0.7c-0.5,0.1-0.9,0.4-0.8,0.5l0,0
		C197.2,50.6,197.6,50.7,198.1,50.7z"/>
	<path d="M206.9,69.9c0.4-0.2,0.9-2.5,0.6-2.8c-0.2-0.2-0.3,0.2-0.4,0.9c-0.1,0.6-0.2,1.3-0.3,1.6v0C206.7,69.9,206.8,70,206.9,69.9
		z"/>
	<path d="M206.6,49.2c0.4,0,0.5,0,0.2-0.2c-0.5-0.3-0.7-0.3-0.7,0h0C206,49.1,206.3,49.2,206.6,49.2z"/>
	<path d="M208.6,49.8L208.6,49.8c0.8,0.2,3.7,0,4.9-0.4c1.3-0.4,2.9-1.3,2.7-1.5c-0.1-0.1-0.5,0.1-1,0.4c-1.2,0.6-3.3,1-5.4,1
		C208.3,49.2,207.7,49.5,208.6,49.8z"/>
	<path d="M203.7,71.5c0.3-0.5,0.7-0.9,1-1c0.8-0.2,1.2-1.5,1.1-3c-0.1-0.7-0.2-1.6-0.4-1.8c-0.2-0.3-0.3-0.1-0.3,1.3
		c0,0.9-0.1,2-0.3,2.4l-0.3,0.7l-0.4-1l-0.4-1l-0.2,1.2c-0.1,0.7-0.3,1.5-0.5,1.8c-0.3,0.6-0.3,0.6-0.5-0.4
		c-0.2-1.1-0.6-1.4-0.6-0.4c0,0.5-0.6,2.7-1.1,4.2v0c-0.2,0.7,0.8-0.3,1.3-1.3c0.2-0.5,0.6-0.8,0.7-0.8
		C203,72.3,203.4,72,203.7,71.5z"/>
	<path d="M209.3,61.8L209.3,61.8c0.5,0.2,1.3,0.3,1.8,0.3c1.5,0,0.9-0.5-1.1-1.1c-2.4-0.7-5.8-2.4-7.2-3.6c-0.5-0.4-0.5-0.4-0.1,0
		C203.6,58.6,207.3,61,209.3,61.8z"/>
</g>
<g>
	<rect y="108.7" class="st0" width="370.3" height="48.3"/>
	<path d="M25.8,110.5l0.3,7h-1.2c-0.3-1.7-0.8-2.9-1.6-3.7c-0.8-0.8-2.2-1.2-4.1-1.2h-0.6v17.9c0,1.2,0.1,1.8,0.8,2.2
		c0.3,0.2,0.6,0.4,0.8,0.4s0.6,0.1,1.2,0.3c0.1,0,0.3,0.1,0.4,0.1v1.3H8.6v-1.3c1.3-0.2,2.1-0.5,2.4-0.8c0.5-0.4,0.7-1.2,0.7-2.2
		v-17.9h-0.6c-2,0-3.4,0.4-4.2,1.2c-0.8,0.8-1.4,2-1.6,3.7H4.1l0.3-7l2.4,0.4h16.6L25.8,110.5z"/>
	<path d="M27.2,134.9v-1.3c1.3-0.2,2.1-0.5,2.4-0.8c0.5-0.4,0.7-1.2,0.7-2.2v-15.4c0-1.2-0.1-1.8-0.8-2.3c-0.4-0.2-0.6-0.3-0.8-0.4
		s-0.6-0.1-1.3-0.3c-0.1,0-0.2-0.1-0.3-0.1v-1.3h13.1v1.3c-1.3,0.2-2.1,0.5-2.4,0.8c-0.5,0.4-0.7,1.2-0.7,2.2v15.4
		c0,1.2,0.1,1.8,0.8,2.2c0.4,0.2,0.6,0.4,0.8,0.4s0.6,0.1,1.3,0.3c0.1,0,0.2,0.1,0.3,0.1v1.3H27.2z"/>
	<path d="M72.5,130.6c0.1,1.2,0.2,1.9,1,2.3c0.4,0.2,0.7,0.4,0.9,0.4s0.6,0.1,1.4,0.3v1.3H62.6v-1.3c0.7-0.1,1.2-0.2,1.4-0.3
		s0.5-0.2,0.9-0.4c0.7-0.4,0.8-1.1,0.8-2.3L65.1,114l-8.2,20.8h-1.1l-8.3-19.3l-0.6,15c-0.1,2.3,1,2.7,3,3c0.1,0,0.3,0,0.4,0v1.3
		h-8.7v-1.3c1.3-0.2,2.1-0.5,2.5-0.8c0.5-0.4,0.8-1.2,0.9-2.2l0.6-15.4c0.1-1.2-0.1-1.8-0.7-2.2c-0.3-0.2-0.6-0.3-0.8-0.4
		s-0.7-0.2-1.2-0.3c-0.2,0-0.3-0.1-0.4-0.1v-1.3h10.3c0.1,0.3,0.4,1.3,1.2,2.9l5,11.7l4.5-11.7c0.6-1.7,1-2.6,1-2.9h10.7v1.3
		c-1.3,0.2-2.1,0.5-2.5,0.8c-0.5,0.4-0.7,1.2-0.6,2.2L72.5,130.6z"/>
	<path d="M99.2,128.7l-1.6,6.2H76.8v-1.3c1.3-0.2,2.1-0.5,2.4-0.8c0.5-0.4,0.7-1.2,0.7-2.2v-15.4c0-1.2-0.1-1.8-0.8-2.3
		c-0.4-0.2-0.6-0.3-0.8-0.4s-0.6-0.1-1.3-0.3c-0.1,0-0.2-0.1-0.3-0.1v-1.3h20.7l0.3,5.8h-1.5c-0.2-1.4-0.5-2.5-1-3.1
		s-1.4-0.9-2.7-0.9h-2.3c-1.5,0-2.5,0.2-2.9,0.5c-0.4,0.3-0.7,1.1-0.7,2.4v6.3h1.8c2.2,0,3.6-0.2,4.2-0.6s1-1.3,1.1-2.5h1.3v8.1
		h-1.3c-0.1-1.3-0.5-2.1-1.1-2.5s-2-0.6-4.2-0.6h-1.8v6.5c0,1.3,0.2,2.1,0.7,2.4s1.4,0.5,2.9,0.5h1.5c1.5,0,2.7-0.3,3.5-0.9
		c0.8-0.6,1.6-1.7,2.3-3.4H99.2z"/>
	<path d="M102.2,132.9l-0.3-5.1h1.4c1.2,3.7,3.7,5.8,7.1,5.8c2.7,0,4.2-1.4,4.2-3.6c0-1.8-1.5-3.3-4.5-4.5c-1.1-0.5-2.1-0.9-2.8-1.3
		c-0.8-0.4-1.6-0.9-2.4-1.6c-1.7-1.3-2.6-3.2-2.6-5.4c0-2.2,0.8-3.9,2.5-5.1s3.9-1.8,6.8-1.8c0.9,0,1.8,0.1,2.6,0.2s1.3,0.2,2,0.5
		c0.7,0.3,1,0.4,1.6,0.6c0.6,0.4,0.5,0.3,1.1,0.6l0.4,0.2l0.1,5.2H118c-0.6-1.9-1.3-3.3-2.2-4.3s-2.1-1.4-3.6-1.4
		c-1.3,0-2.2,0.3-2.9,0.9c-0.6,0.6-0.9,1.4-0.9,2.2c0,0.7,0.2,1.3,0.7,1.8s1.5,1.1,3.1,1.8c0.8,0.4,1.5,0.6,1.9,0.8
		c0.4,0.2,1.1,0.5,1.9,0.9s1.5,0.9,2,1.3c1,0.9,2.2,2,2.7,3.5c0.2,0.7,0.4,1.5,0.4,2.4c0,2.3-0.9,4.1-2.8,5.5
		c-1.9,1.4-4.3,2.1-7.4,2.1C107.1,135.3,104.2,134.5,102.2,132.9z"/>
	<path d="M134.1,131.9c-2.4-2.3-3.5-5.2-3.5-8.9c0-3.8,1.2-6.9,3.6-9.2c2.4-2.3,5.4-3.5,9-3.5c3.6,0,6.6,1.1,8.9,3.4
		s3.5,5.3,3.5,9.1c0,3.7-1.2,6.6-3.6,9c-2.4,2.3-5.4,3.5-9,3.5C139.4,135.3,136.5,134.2,134.1,131.9z M147.4,131.1
		c0.7-1.6,1.1-4,1.1-7.1c0-7.9-2-11.9-5.9-11.9c-1.8,0-3,0.8-3.7,2.4c-0.7,1.6-1.1,4-1.1,7.4c0,7.7,2,11.6,5.9,11.6
		C145.4,133.5,146.7,132.7,147.4,131.1z"/>
	<path d="M170.2,112.7c-1.5,0-2.5,0.2-2.9,0.5c-0.4,0.3-0.7,1.1-0.7,2.4v6.3h2.6c2.2,0,3.6-0.2,4.2-0.6s1-1.3,1.1-2.5h1.3v8.1h-1.3
		c-0.1-1.3-0.5-2.1-1.1-2.5s-2-0.6-4.2-0.6h-2.6v6.9c0,1.2,0.1,1.8,0.8,2.2c0.4,0.2,0.6,0.4,0.8,0.4s0.6,0.1,1.3,0.3
		c0.1,0,0.2,0.1,0.3,0.1v1.3h-13.1v-1.3c1.3-0.2,2.1-0.5,2.4-0.8c0.5-0.4,0.7-1.2,0.7-2.2v-15.4c0-1.2-0.1-1.8-0.8-2.3
		c-0.4-0.2-0.6-0.3-0.8-0.4s-0.6-0.1-1.3-0.3c-0.1,0-0.2-0.1-0.3-0.1v-1.3h21l0.4,5.8h-1.5c-0.2-1.4-0.5-2.5-1-3.1s-1.4-0.9-2.7-0.9
		H170.2z"/>
	<path d="M217.6,130.6c0.1,1.2,0.2,1.9,1,2.3c0.4,0.2,0.7,0.4,0.9,0.4s0.6,0.1,1.4,0.3v1.3h-13.1v-1.3c0.7-0.1,1.2-0.2,1.4-0.3
		s0.5-0.2,0.9-0.4c0.7-0.4,0.8-1.1,0.8-2.3l-0.6-16.5l-8.2,20.8h-1.1l-8.3-19.3l-0.6,15c-0.1,2.3,1,2.7,3,3c0.1,0,0.3,0,0.4,0v1.3
		h-8.7v-1.3c1.3-0.2,2.1-0.5,2.5-0.8c0.5-0.4,0.8-1.2,0.9-2.2l0.6-15.4c0.1-1.2-0.1-1.8-0.7-2.2c-0.3-0.2-0.6-0.3-0.8-0.4
		s-0.7-0.2-1.2-0.3c-0.2,0-0.3-0.1-0.4-0.1v-1.3h10.3c0.1,0.3,0.4,1.3,1.2,2.9l5,11.7l4.5-11.7c0.6-1.7,1-2.6,1-2.9H220v1.3
		c-1.3,0.2-2.1,0.5-2.5,0.8c-0.5,0.4-0.7,1.2-0.6,2.2L217.6,130.6z"/>
	<path d="M244.4,131.5c0.4,0.9,0.7,1.3,1.2,1.5c0.3,0.1,0.3,0.1,0.6,0.2c0.2,0,0.3,0.1,0.4,0.1c0.1,0.1,0.8,0.1,1,0.2v1.3h-12.8
		v-1.3c0.2,0,1.1-0.2,1.3-0.3c0.2-0.1,0.8-0.2,0.9-0.4c0.2-0.3,0.4-0.6,0.1-1.4l-1.4-3.1h-8.2l-1.3,3c-0.2,0.4-0.3,0.9-0.1,1.1
		s0.2,0.4,0.6,0.6c0.4,0.1,0.5,0.2,1.2,0.3c0.3,0.1,0.5,0.1,0.6,0.1v1.3h-7.4v-1.3c1-0.2,1.7-0.4,2-0.6c0.3-0.2,0.7-0.7,1.1-1.6
		l9.2-20.7h1.9L244.4,131.5z M228.3,126.7h6.7l-3.4-7.8L228.3,126.7z"/>
	<path d="M259.1,110.9c3.4,0,6.7,0.9,9.5,2.7c1.4,0.9,2.6,2.1,3.4,3.7s1.3,3.4,1.3,5.4c0,2.1-0.4,3.9-1.3,5.5s-2,2.9-3.4,3.8
		c-2.8,1.9-6.2,2.8-9.6,2.8h-12.6v-1.3c1.3-0.2,2.1-0.5,2.4-0.8c0.5-0.4,0.7-1.2,0.7-2.2v-15.4c0-1.2-0.1-1.8-0.8-2.3
		c-0.4-0.2-0.6-0.3-0.8-0.4s-0.6-0.1-1.3-0.3c-0.1,0-0.2-0.1-0.3-0.1v-1.3H259.1z M264.6,130.4c1.1-1.8,1.7-4.2,1.7-7.3
		c0-3.1-0.6-5.6-1.9-7.6c-1.3-1.9-3.2-2.9-5.5-2.9h-2.2v16.9c0,1.4,0.3,2.3,0.8,2.8s1.5,0.8,2.9,0.8
		C262,133.1,263.4,132.2,264.6,130.4z"/>
	<path d="M297.3,128.7l-1.6,6.2h-20.8v-1.3c1.3-0.2,2.1-0.5,2.4-0.8c0.5-0.4,0.7-1.2,0.7-2.2v-15.4c0-1.2-0.1-1.8-0.8-2.3
		c-0.4-0.2-0.6-0.3-0.8-0.4s-0.6-0.1-1.3-0.3c-0.1,0-0.2-0.1-0.3-0.1v-1.3h20.7l0.3,5.8h-1.5c-0.2-1.4-0.5-2.5-1-3.1
		s-1.4-0.9-2.7-0.9h-2.3c-1.5,0-2.5,0.2-2.9,0.5c-0.4,0.3-0.7,1.1-0.7,2.4v6.3h1.8c2.2,0,3.6-0.2,4.2-0.6s1-1.3,1.1-2.5h1.3v8.1H292
		c-0.1-1.3-0.5-2.1-1.1-2.5s-2-0.6-4.2-0.6h-1.8v6.5c0,1.3,0.2,2.1,0.7,2.4s1.4,0.5,2.9,0.5h1.5c1.5,0,2.7-0.3,3.5-0.9
		c0.8-0.6,1.6-1.7,2.3-3.4H297.3z"/>
	<path d="M298.5,134.9v-1.3c1.3-0.2,2.1-0.5,2.4-0.8c0.5-0.4,0.7-1.2,0.7-2.2v-15.4c0-1.2-0.1-1.8-0.8-2.3c-0.4-0.2-0.6-0.3-0.8-0.4
		s-0.6-0.1-1.3-0.3c-0.1,0-0.2-0.1-0.3-0.1v-1.3h13.1v1.3c-1.3,0.2-2.1,0.5-2.4,0.8c-0.5,0.4-0.7,1.2-0.7,2.2v15.4
		c0,1.2,0.1,1.8,0.8,2.2c0.4,0.2,0.6,0.4,0.8,0.4s0.6,0.1,1.3,0.3c0.1,0,0.2,0.1,0.3,0.1v1.3H298.5z"/>
	<path d="M335.3,130.6c0.5,0.9,1.2,1.7,2.2,2.3s2,0.9,3.1,0.6v1.3c-1,0.4-2.4,0.6-4.2,0.6c-3.9,0-6.4-1.1-7.6-3.4l-1.9-3.5
		c-0.8-1.5-1.5-2.5-2.1-3s-1.3-0.8-2-0.9v5.8c0,1.2,0.1,1.8,0.8,2.2c0.4,0.2,0.6,0.4,0.8,0.4s0.6,0.1,1.3,0.3c0.1,0,0.2,0.1,0.3,0.1
		v1.3h-13.1v-1.3c1.3-0.2,2.1-0.5,2.4-0.8c0.5-0.4,0.7-1.2,0.7-2.2v-15.4c0-1.2-0.1-1.8-0.8-2.3c-0.4-0.2-0.6-0.3-0.8-0.4
		s-0.6-0.1-1.3-0.3c-0.1,0-0.2-0.1-0.3-0.1v-1.3H325c7.6,0,11.4,2.2,11.4,6.7c0,3.7-2.5,6-7.4,6.8c2.1,0.3,3.6,1.4,4.7,3.2
		L335.3,130.6z M322.7,114.5v8.5h1c2.4,0,4-0.6,4.6-1.7c0.6-1.1,0.8-2,0.8-3.3c0-3.5-1.4-5.3-4.1-5.3
		C323.2,112.7,322.7,113.3,322.7,114.5z"/>
	<path d="M363.7,131.5c0.4,0.9,0.7,1.3,1.2,1.5c0.3,0.1,0.3,0.1,0.6,0.2c0.2,0,0.3,0.1,0.4,0.1c0.1,0.1,0.8,0.1,1,0.2v1.3h-12.8
		v-1.3c0.2,0,1.1-0.2,1.3-0.3c0.2-0.1,0.8-0.2,0.9-0.4c0.2-0.3,0.4-0.6,0.1-1.4l-1.4-3.1h-8.2l-1.3,3c-0.2,0.4-0.3,0.9-0.1,1.1
		s0.2,0.4,0.6,0.6c0.4,0.1,0.5,0.2,1.2,0.3c0.3,0.1,0.5,0.1,0.6,0.1v1.3h-7.4v-1.3c1-0.2,1.7-0.4,2-0.6c0.3-0.2,0.7-0.7,1.1-1.6
		l9.2-20.7h1.9L363.7,131.5z M347.6,126.7h6.7l-3.4-7.8L347.6,126.7z"/>
</g>
</svg>
